<?xml version="1.0" encoding="UTF-8"?>
<svg id="Layer_1" data-name="Layer 1" xmlns="http://www.w3.org/2000/svg" viewBox="0 0 1204.74 629.45">
  <defs>
    <style>
      .cls-1 {
        fill: #15345a;
      }

      .cls-2 {
        fill: #1b753f;
      }
    </style>
  </defs>
  <g id="Layer_27" data-name="Layer 27">
    <path class="cls-2" d="m348.43,421.25c38.82-38.8,60.19-90.46,60.19-145.46s-21.37-106.68-60.17-145.44l-28.94-28.96-60.96,60.96-.19-.17-49.78,49.8,1.16,110.68,97.38-71.67c3.29,34.08-9.97,74.8-32.06,96.88l-56.94,56.96-58.7-58.72c-18.76-18.74-29.07-43.7-29.07-70.33s10.31-51.57,29.07-70.31l132.07-132.11L220.07,1.93l-1.95-1.93L86.03,132.09c-38.31,38.33-59.42,89.37-59.42,143.7s21.11,105.39,59.42,143.72l96.22,96.19v101.24h70.72v-100.22l95.47-95.49Z"/>
  </g>
  <g id="Layer_26" data-name="Layer 26">
    <path class="cls-1" d="m519.44,65.63c20.18,0,42.29,8.41,58.62,22.58,2.15,1.68,2.41,4.57.47,6.48l-18.97,20.18c-1.92,1.67-4.56,1.67-6.49.23-9.11-8.41-19.7-11.53-31.45-11.53-26.19,0-47.33,22.1-47.33,48.53s21.38,47.8,47.57,47.8c6.96,0,14.18-.97,21.38-3.84v-13.94h-15.14c-2.64,0-4.56-1.93-4.56-4.32v-23.78c0-2.64,1.92-4.57,4.56-4.57h48.29c2.41,0,4.32,2.17,4.32,4.57l.23,64.61c0,1.2-.96,3.13-1.92,3.85,0,0-24.74,15.61-59.58,15.61-47.8,0-86.24-37.95-86.24-85.99s38.43-86.48,86.24-86.48Z"/>
  </g>
  <g id="Layer_25" data-name="Layer 25">
    <path class="cls-1" d="m603.83,72.36c0-2.41,1.92-4.57,4.58-4.57h71.82c28.81,0,52.36,23.3,52.36,51.89,0,22.09-14.65,39.87-35.56,48.28l32.92,61.01c1.68,3.12,0,6.96-4.09,6.96h-31.94c-1.94,0-3.36-1.2-3.85-2.16l-31.94-63.65h-16.59v61.25c0,2.41-2.15,4.57-4.56,4.57h-28.58c-2.66,0-4.58-2.16-4.58-4.57V72.36Zm73.27,67.25c9.84,0,18.25-9.12,18.25-19.22s-8.41-18.25-18.25-18.25h-35.56v37.47h35.56Z"/>
  </g>
  <g id="Layer_24" data-name="Layer 24">
    <path class="cls-1" d="m750.68,72.36c0-2.41,1.92-4.57,4.58-4.57h99.44c2.64,0,4.56,2.16,4.56,4.57v26.18c0,2.41-1.92,4.57-4.56,4.57h-66.54v29.79h54.77c2.41,0,4.58,2.16,4.58,4.56v26.19c0,2.64-2.17,4.56-4.58,4.56h-54.77v32.43h66.54c2.64,0,4.56,2.16,4.56,4.57v26.18c0,2.41-1.92,4.57-4.56,4.57h-99.44c-2.66,0-4.58-2.16-4.58-4.57V72.36Z"/>
  </g>
  <g id="Layer_23" data-name="Layer 23">
    <path class="cls-1" d="m888.89,72.36c0-2.41,1.92-4.57,4.58-4.57h99.44c2.64,0,4.56,2.16,4.56,4.57v26.18c0,2.41-1.92,4.57-4.56,4.57h-66.54v29.79h54.77c2.41,0,4.58,2.16,4.58,4.56v26.19c0,2.64-2.17,4.56-4.58,4.56h-54.77v32.43h66.54c2.64,0,4.56,2.16,4.56,4.57v26.18c0,2.41-1.92,4.57-4.56,4.57h-99.44c-2.66,0-4.58-2.16-4.58-4.57V72.36Z"/>
  </g>
  <g id="Layer_22" data-name="Layer 22">
    <path class="cls-1" d="m1026.6,69.72c0-2.41,2.15-4.32,4.56-4.32h6l95.84,92.24h.25v-85.28c0-2.41,1.92-4.57,4.56-4.57h28.83c2.41,0,4.56,2.16,4.56,4.57v161.66c0,2.41-2.15,4.33-4.56,4.33h-3.85c-.7,0-2.64-.72-3.11-1.2l-94.88-95.37h-.25v89.6c0,2.41-1.92,4.57-4.56,4.57h-28.58c-2.41,0-4.58-2.16-4.58-4.57l-.23-161.66Z"/>
  </g>
  <g id="Layer_21" data-name="Layer 21">
    <path class="cls-1" d="m440.97,279.3c0-2.27,2.05-4.32,4.33-4.32h27.01c2.5,0,4.31,2.04,4.31,4.32v57.22h64.95v-57.22c0-2.27,1.81-4.32,4.31-4.32h27.03c2.26,0,4.31,2.04,4.31,4.32v150.31c0,2.27-2.05,4.32-4.31,4.32h-27.03c-2.5,0-4.31-2.04-4.31-4.32v-59.72h-64.95v59.72c0,2.27-1.81,4.32-4.31,4.32h-27.01c-2.27,0-4.33-2.04-4.33-4.32v-150.31Z"/>
  </g>
  <g id="Layer_20" data-name="Layer 20">
    <path class="cls-1" d="m669.48,272.72c45.41,0,81.74,36.55,81.74,81.97s-36.33,81.51-81.74,81.51-81.51-36.11-81.51-81.51,36.11-81.97,81.51-81.97Zm0,127.15c24.98,0,45.41-20.44,45.41-45.18s-20.43-45.64-45.41-45.64-45.18,20.66-45.18,45.64,20.43,45.18,45.18,45.18Z"/>
  </g>
  <g id="Layer_19" data-name="Layer 19">
    <path class="cls-1" d="m783.1,276.35c.22-2.04,2.26-3.63,4.09-3.63h3.62c1.15,0,3.18.91,3.86,2.26l52.67,98.09h.46l52.67-98.09c.68-1.36,2.72-2.26,3.86-2.26h3.62c1.83,0,3.86,1.59,4.09,3.63l25.66,152.58c.46,2.95-1.59,4.99-4.31,4.99h-26.79c-2.05,0-4.09-1.82-4.33-3.63l-10.21-70.16h-.46l-38.14,73.56c-.68,1.37-2.74,2.51-3.86,2.51h-4.09c-1.37,0-3.18-1.14-3.86-2.51l-38.36-73.56h-.46l-9.98,70.16c-.24,1.81-2.05,3.63-4.33,3.63h-26.79c-2.72,0-4.77-2.04-4.31-4.99l25.66-152.58Z"/>
  </g>
  <g id="Layer_18" data-name="Layer 18">
    <path class="cls-1" d="m955.74,279.3c0-2.27,1.81-4.32,4.33-4.32h93.99c2.5,0,4.31,2.04,4.31,4.32v24.75c0,2.27-1.81,4.32-4.31,4.32h-62.9v28.16h51.77c2.27,0,4.33,2.04,4.33,4.31v24.76c0,2.5-2.05,4.31-4.33,4.31h-51.77v30.65h62.9c2.5,0,4.31,2.04,4.31,4.32v24.75c0,2.27-1.81,4.32-4.31,4.32h-93.99c-2.51,0-4.33-2.04-4.33-4.32v-150.31Z"/>
  </g>
  <g id="Layer_17" data-name="Layer 17">
    <path class="cls-1" d="m1079.8,412.36l10.67-18.85c1.81-2.95,6.14-2.5,7.73-1.36.91.45,17.25,12.48,32.24,12.48,9.08,0,15.66-5.68,15.66-13.62,0-9.54-7.95-16.81-23.39-22.93-19.52-7.72-44.04-22.93-44.04-50.18,0-22.48,17.47-45.18,52.43-45.18,23.63,0,41.78,12.03,48.6,17.03,2.72,1.59,2.27,5.68,1.35,7.27l-11.57,17.48c-1.59,2.5-5.68,4.54-7.73,2.95-2.03-1.13-18.62-13.62-32.46-13.62-8.17,0-14.29,5.44-14.29,11.57,0,8.4,6.8,14.76,24.74,22.03,17.71,7.03,45.87,20.89,45.87,51.77,0,23.39-20.21,47.01-53.58,47.01-29.53,0-45.87-12.27-51.1-17.49-2.26-2.26-2.94-3.18-1.13-6.35Z"/>
  </g>
  <g id="Layer_16" data-name="Layer 16">
    <path class="cls-1" d="m481.82,465.77c11.4,0,19.64,3.84,27.31,10.5,1.02.9,1.02,2.26.11,3.16l-4.97,5.08c-.79,1.02-1.81,1.02-2.82,0-5.3-4.63-12.53-7.56-19.52-7.56-16.14,0-28.33,13.54-28.33,29.34s12.3,29.23,28.44,29.23c8.24,0,13.99-3.27,19.41-7.45,1.02-.79,2.03-.68,2.71-.11l5.19,5.08c.9.79.68,2.26-.11,3.05-7.67,7.45-17.38,10.95-27.42,10.95-22.57,0-40.74-17.94-40.74-40.52s18.17-40.74,40.74-40.74Z"/>
  </g>
  <g id="Layer_15" data-name="Layer 15">
    <path class="cls-1" d="m535.64,517.34c4.74,0,8.92,1.35,8.92,1.35.11-7.11-1.24-9.93-7-9.93-5.19,0-10.27,1.35-12.64,2.03-1.35.34-2.14-.57-2.48-1.81l-.9-4.17c-.34-1.47.45-2.26,1.47-2.6.79-.34,7.22-2.6,15.57-2.6,14.45,0,15.8,8.8,15.8,20.09v24.04c0,1.13-1.02,2.14-2.14,2.14h-3.16c-1.02,0-1.47-.45-1.92-1.58l-1.13-3.05c-2.48,2.37-6.88,5.76-13.88,5.76-8.46,0-14.56-5.76-14.56-15.12,0-8.24,6.55-14.56,18.06-14.56Zm-1.35,21.67c4.51,0,8.8-3.39,10.16-5.64v-7.22c-.68-.45-3.84-1.81-7.9-1.81-5.42,0-9.14,2.82-9.14,7.45,0,4.06,2.71,7.22,6.88,7.22Z"/>
  </g>
  <g id="Layer_14" data-name="Layer 14">
    <path class="cls-1" d="m568.59,502.9c0-1.13,1.02-2.14,2.14-2.14h3.27c.79,0,1.69.68,1.92,1.58l1.24,3.84c.79-1.13,4.97-6.54,13.2-6.54,4.29,0,9.48,1.13,8.24,4.17l-2.71,5.53c-.57,1.24-1.69,1.47-2.71,1.01-.68-.34-2.37-.79-3.84-.79-6.54,0-9.71,4.74-10.16,5.53v28.67c0,1.92-1.24,2.14-3.05,2.14h-5.42c-1.13,0-2.14-1.02-2.14-2.14v-40.85Z"/>
  </g>
  <g id="Layer_13" data-name="Layer 13">
    <path class="cls-1" d="m617.34,577.61c0,1.24-.79,2.14-2.37,2.14h-6.32c-1.13,0-2.14-1.02-2.14-2.14v-74.71c0-1.13,1.02-2.14,2.14-2.14h3.39c.9,0,1.47.45,1.92,1.47l1.13,2.93c.79-.79,5.42-5.53,13.77-5.53,12.41,0,21.56,10.83,21.56,23.81s-9.71,23.59-22.01,23.59c-5.87,0-10.27-2.6-11.06-3.05v33.63Zm9.71-40.29c7.45,0,12.87-6.21,12.87-13.88s-4.74-13.99-12.41-13.99c-6.55,0-9.93,5.19-10.38,6.54v18.06s3.95,3.27,9.93,3.27Z"/>
  </g>
  <g id="Layer_12" data-name="Layer 12">
    <path class="cls-1" d="m681.1,499.63c11.74,0,20.76,8.8,20.76,20.88,0,.79-.11,2.26-.23,3.05-.11,1.13-1.02,1.92-2.03,1.92h-30.7c.34,6.09,5.64,12.08,12.98,12.08,4.06,0,7.79-1.8,10.04-3.27,1.35-.79,2.14-1.24,3.05-.11l3.16,4.29c.79.9,1.13,1.8-.23,2.93-3.27,2.82-9.14,5.64-16.7,5.64-13.65,0-22.68-10.72-22.68-23.7s9.03-23.7,22.57-23.7Zm10.27,18.73c-.34-5.42-4.85-10.04-10.38-10.04-6.09,0-10.83,4.4-11.51,10.04h21.9Z"/>
  </g>
  <g id="Layer_11" data-name="Layer 11">
    <path class="cls-1" d="m715.63,510.12h-4.74c-1.24,0-2.14-1.02-2.14-2.14v-5.08c0-1.24.9-2.14,2.14-2.14h4.74v-12.53c0-1.13,1.01-2.14,2.14-2.14l6.43-.11c1.13,0,2.03,1.02,2.03,2.14v12.64h11.51c1.24,0,2.14.9,2.14,2.14v5.08c0,1.13-.9,2.14-2.14,2.14h-11.51v22.35c0,3.84,1.47,4.51,3.61,4.51,2.37,0,5.53-1.36,6.88-2.03,1.47-.68,2.14,0,2.6,1.02l2.03,4.97c.56,1.24.11,2.14-1.02,2.71-1.13.68-7.79,3.39-13.2,3.39-8.91,0-11.51-5.42-11.51-13.43v-23.47Z"/>
  </g>
  <g id="Layer_10" data-name="Layer 10">
    <path class="cls-1" d="m815.16,465.77c11.4,0,19.64,3.84,27.31,10.5,1.02.9,1.02,2.26.11,3.16l-4.97,5.08c-.79,1.02-1.81,1.02-2.82,0-5.3-4.63-12.53-7.56-19.52-7.56-16.14,0-28.33,13.54-28.33,29.34s12.3,29.23,28.44,29.23c8.24,0,13.99-3.27,19.41-7.45,1.02-.79,2.03-.68,2.71-.11l5.19,5.08c.9.79.68,2.26-.11,3.05-7.67,7.45-17.38,10.95-27.42,10.95-22.57,0-40.74-17.94-40.74-40.52s18.17-40.74,40.74-40.74Z"/>
  </g>
  <g id="Layer_9" data-name="Layer 9">
    <path class="cls-1" d="m854.09,469.04c0-1.13,1.02-2.14,2.14-2.14h6.43c1.13,0,2.14,1.02,2.14,2.14v74.71c0,1.13-1.02,2.14-2.14,2.14h-6.43c-1.13,0-2.14-1.02-2.14-2.14v-74.71Z"/>
  </g>
  <g id="Layer_8" data-name="Layer 8">
    <path class="cls-1" d="m898.78,499.63c11.74,0,20.76,8.8,20.76,20.88,0,.79-.11,2.26-.23,3.05-.11,1.13-1.02,1.92-2.03,1.92h-30.7c.34,6.09,5.64,12.08,12.98,12.08,4.06,0,7.79-1.8,10.04-3.27,1.35-.79,2.14-1.24,3.05-.11l3.16,4.29c.79.9,1.13,1.8-.23,2.93-3.27,2.82-9.14,5.64-16.7,5.64-13.65,0-22.68-10.72-22.68-23.7s9.03-23.7,22.57-23.7Zm10.27,18.73c-.34-5.42-4.85-10.04-10.38-10.04-6.09,0-10.83,4.4-11.51,10.04h21.9Z"/>
  </g>
  <g id="Layer_7" data-name="Layer 7">
    <path class="cls-1" d="m945.15,517.34c4.74,0,8.92,1.35,8.92,1.35.11-7.11-1.24-9.93-7-9.93-5.19,0-10.27,1.35-12.64,2.03-1.35.34-2.14-.57-2.48-1.81l-.9-4.17c-.34-1.47.45-2.26,1.47-2.6.79-.34,7.22-2.6,15.57-2.6,14.45,0,15.8,8.8,15.8,20.09v24.04c0,1.13-1.02,2.14-2.14,2.14h-3.16c-1.02,0-1.47-.45-1.92-1.58l-1.13-3.05c-2.48,2.37-6.88,5.76-13.88,5.76-8.46,0-14.56-5.76-14.56-15.12,0-8.24,6.55-14.56,18.06-14.56Zm-1.35,21.67c4.51,0,8.8-3.39,10.16-5.64v-7.22c-.68-.45-3.84-1.81-7.9-1.81-5.42,0-9.14,2.82-9.14,7.45,0,4.06,2.71,7.22,6.88,7.22Z"/>
  </g>
  <g id="Layer_6" data-name="Layer 6">
    <path class="cls-1" d="m978.1,502.9c0-1.13,1.02-2.14,2.14-2.14h3.27c.9,0,1.58.57,1.8,1.36l1.35,3.84c.79-.9,6.77-6.32,15.8-6.32,13.77,0,18.85,9.71,18.85,21.44v22.68c0,1.13-1.02,2.14-2.14,2.14h-6.43c-1.24,0-2.14-1.02-2.14-2.14v-23.13c0-7.22-3.5-11.17-9.37-11.17-7.11,0-11.96,5.19-12.53,6.77v27.54c0,1.47-.68,2.14-2.6,2.14h-5.87c-1.13,0-2.14-1.02-2.14-2.14v-40.85Z"/>
  </g>
  <g id="Layer_5" data-name="Layer 5">
    <path class="cls-1" d="m1034.19,475.82c0-3.72,2.82-6.66,6.43-6.66s6.66,2.94,6.66,6.66-2.93,6.54-6.66,6.54-6.43-2.93-6.43-6.54Zm1.24,27.08c0-1.13,1.02-2.14,2.14-2.14h6.43c1.13,0,2.14,1.02,2.14,2.14v40.85c0,1.13-1.02,2.14-2.14,2.14h-6.43c-1.13,0-2.14-1.02-2.14-2.14v-40.85Z"/>
  </g>
  <g id="Layer_4" data-name="Layer 4">
    <path class="cls-1" d="m1060.82,502.9c0-1.13,1.02-2.14,2.14-2.14h3.27c.9,0,1.58.57,1.8,1.36l1.35,3.84c.79-.9,6.77-6.32,15.8-6.32,13.77,0,18.85,9.71,18.85,21.44v22.68c0,1.13-1.02,2.14-2.14,2.14h-6.43c-1.24,0-2.14-1.02-2.14-2.14v-23.13c0-7.22-3.5-11.17-9.37-11.17-7.11,0-11.96,5.19-12.53,6.77v27.54c0,1.47-.68,2.14-2.6,2.14h-5.87c-1.13,0-2.14-1.02-2.14-2.14v-40.85Z"/>
  </g>
  <g id="Layer_3" data-name="Layer 3">
    <path class="cls-1" d="m1121.64,530.32s-3.5-4.17-3.5-10.95c0-10.5,7.9-19.75,19.41-19.75h19.75c1.24,0,2.14.9,2.14,2.14v2.82c0,.79-.45,1.8-1.24,1.92l-6.21,1.69s4.85,3.61,4.85,12.08c0,9.59-7.45,18.39-19.19,18.39-5.75,0-8.91-1.81-9.82-1.81-.79,0-4.63,1.92-4.63,5.53,0,2.6,2.03,4.63,5.42,4.63h15.35c9.82,0,17.72,5.3,17.72,15.12s-9.03,18.73-24.04,18.73c-15.91,0-22.34-8.13-22.34-15.46,0-6.77,5.53-9.93,6.66-10.61v-.34c-2.37-.68-8.35-3.72-8.35-11.28,0-8.69,8.01-12.87,8.01-12.87Zm15.91,41.3c6.88,0,12.87-3.5,12.87-8.91,0-1.81-1.13-6.43-8.46-6.43-3.27,0-6.66,0-9.93.23-.68.23-6.21,2.03-6.21,7.11,0,4.63,4.86,8.01,11.74,8.01Zm9.71-52.03c0-6.09-3.84-10.38-9.48-10.38s-9.93,4.29-9.93,10.38,4.18,10.38,9.93,10.38,9.48-4.29,9.48-10.38Z"/>
  </g>
  <g id="Layer_2" data-name="Layer 2">
    <polygon class="cls-2" points="0 604.45 1204.74 616.95 0 629.45 0 604.45 0 604.45"/>
  </g>
</svg>