<?xml version="1.0" encoding="UTF-8"?>
<svg id="Layer_2" data-name="Layer 2" xmlns="http://www.w3.org/2000/svg" viewBox="0 0 347.64 92.62">
  <defs>
    <style>
      .cls-1 {
        fill: #15345a;
      }
    </style>
  </defs>
  <g id="Layer_1-2" data-name="Layer 1">
    <g>
      <path class="cls-1" d="M9.78,0c2.74,0,4.71,.87,6.55,2.52,.24,.22,.24,.54,.03,.76l-1.65,1.71c-.19,.22-.46,.22-.68,0-1.14-1-2.65-1.6-4.17-1.6-3.47,0-6.04,2.9-6.04,6.31s2.6,6.26,6.07,6.26c1.62,0,3.01-.62,4.14-1.54,.22-.19,.51-.16,.68,0l1.68,1.73c.22,.19,.16,.54-.03,.73-1.84,1.79-4.17,2.63-6.58,2.63C4.36,19.5,0,15.19,0,9.78S4.36,0,9.78,0Z"/>
      <path class="cls-1" d="M23.37,8.13c3.06,0,5.55,2.6,5.55,5.66s-2.49,5.71-5.55,5.71-5.55-2.6-5.55-5.71,2.49-5.66,5.55-5.66Zm0,8.45c1.44,0,2.6-1.25,2.6-2.79s-1.16-2.74-2.6-2.74-2.6,1.22-2.6,2.74,1.14,2.79,2.6,2.79Z"/>
      <path class="cls-1" d="M31.33,8.91c0-.3,.24-.51,.51-.51h1c.24,0,.41,.14,.46,.3l.38,1.03c.46-.51,1.71-1.6,3.63-1.6,1.54,0,2.63,.6,3.52,1.68,.46-.49,1.87-1.68,3.82-1.68,3.47,0,4.74,2.57,4.74,5.42v5.17c0,.27-.22,.51-.51,.51h-2.19c-.3,0-.51-.24-.51-.51v-5.36c0-1.41-.68-2.3-2.03-2.3-1.57,0-2.28,1.14-2.28,1.14,0,0,.03,.54,.03,1.03v5.5c0,.27-.24,.51-.51,.51h-2.03c-.3,0-.51-.24-.51-.51v-5.36c0-1.41-.62-2.3-2-2.3s-2,.98-2.27,1.71v5.96c0,.27-.24,.51-.51,.51h-2.19c-.27,0-.51-.24-.51-.51V8.91Z"/>
      <path class="cls-1" d="M55.76,26.84c0,.32-.16,.51-.65,.51h-2.17c-.27,0-.51-.24-.51-.51V8.91c0-.3,.24-.51,.51-.51h1.06c.19,0,.38,.11,.46,.33l.35,.89c.41-.54,1.73-1.49,3.49-1.49,2.98,0,5.23,2.57,5.23,5.69s-2.44,5.69-5.36,5.69c-1.06,0-2.03-.38-2.41-.6v7.94Zm1.98-10.27c1.52,0,2.63-1.25,2.63-2.76s-1.03-2.76-2.52-2.76c-1.38,0-2.06,1.08-2.22,1.65v3.25s.76,.62,2.11,.62Z"/>
      <path class="cls-1" d="M65.97,.79c0-.27,.24-.51,.51-.51h2.27c.27,0,.51,.24,.51,.51V18.72c0,.27-.24,.51-.51,.51h-2.27c-.27,0-.51-.24-.51-.51V.79Z"/>
      <path class="cls-1" d="M77.24,8.13c2.79,0,5.06,2.11,5.06,5.04,0,.19-.03,.54-.05,.73-.03,.27-.27,.46-.51,.46h-6.93c.08,1.11,1.03,2.36,2.6,2.36,.84,0,1.63-.32,2.11-.68,.27-.16,.51-.22,.7,0l1.11,1.27c.19,.19,.24,.49-.03,.7-.89,.84-2.27,1.49-4.04,1.49-3.25,0-5.55-2.57-5.55-5.69s2.3-5.69,5.53-5.69Zm1.9,4.33c-.08-1-.95-1.84-1.98-1.84-1.08,0-1.98,.81-2.11,1.84h4.09Z"/>
      <path class="cls-1" d="M85.14,11.24h-.92c-.27,0-.49-.24-.49-.51v-1.81c0-.3,.22-.51,.49-.51h.92v-3.01c0-.27,.24-.51,.51-.51l2.22-.03c.27,0,.49,.24,.49,.51v3.03h2.38c.3,0,.51,.22,.51,.51v1.81c0,.27-.22,.51-.51,.51h-2.38v4.33c0,.76,.41,.87,.84,.87,.46,0,1.03-.19,1.33-.3,.3-.11,.51,.03,.6,.3l.54,1.71c.11,.27-.03,.54-.3,.65-.14,.08-1.9,.7-3.22,.7-2.09,0-3.01-1.3-3.01-3.49v-4.77Z"/>
      <path class="cls-1" d="M98.63,8.13c2.79,0,5.06,2.11,5.06,5.04,0,.19-.03,.54-.05,.73-.03,.27-.27,.46-.51,.46h-6.93c.08,1.11,1.03,2.36,2.6,2.36,.84,0,1.62-.32,2.11-.68,.27-.16,.51-.22,.7,0l1.11,1.27c.19,.19,.24,.49-.03,.7-.89,.84-2.27,1.49-4.04,1.49-3.25,0-5.55-2.57-5.55-5.69s2.3-5.69,5.53-5.69Zm1.9,4.33c-.08-1-.95-1.84-1.98-1.84-1.08,0-1.98,.81-2.11,1.84h4.09Z"/>
      <path class="cls-1" d="M105.97,.79c0-.27,.24-.51,.51-.51h2.27c.27,0,.51,.24,.51,.51V18.72c0,.27-.24,.51-.51,.51h-2.27c-.27,0-.51-.24-.51-.51V.79Z"/>
      <path class="cls-1" d="M111.12,9.1c-.16-.35,.05-.7,.46-.7h2.44c.24,0,.38,.14,.46,.3l2.74,6.12h.03l2.71-6.12c.14-.27,.32-.3,.65-.3h2.17c.43,0,.65,.35,.46,.7l-8.29,17.93c-.08,.16-.24,.33-.46,.33h-2.33c-.41,0-.65-.35-.46-.73l3.85-8.15-4.41-9.37Z"/>
      <path class="cls-1" d="M131.89,.49c0-.27,.24-.49,.51-.49h.68l11.27,11.97h.03V.79c0-.27,.22-.51,.51-.51h2.49c.27,0,.51,.24,.51,.51V19.01c0,.27-.24,.49-.51,.49h-.65l-11.32-12.43h-.03v11.65c0,.27-.22,.51-.51,.51h-2.46c-.27,0-.51-.24-.51-.51V.49Z"/>
      <path class="cls-1" d="M156.1,8.13c3.06,0,5.55,2.6,5.55,5.66s-2.49,5.71-5.55,5.71-5.55-2.6-5.55-5.71,2.49-5.66,5.55-5.66Zm0,8.45c1.44,0,2.6-1.25,2.6-2.79s-1.16-2.74-2.6-2.74-2.6,1.22-2.6,2.74,1.14,2.79,2.6,2.79Z"/>
      <path class="cls-1" d="M164.06,8.91c0-.3,.24-.51,.51-.51h1.03c.24,0,.38,.14,.46,.33l.38,1c.41-.43,1.73-1.6,3.82-1.6,3.44,0,4.82,2.57,4.82,5.39v5.2c0,.27-.24,.51-.51,.51h-2.22c-.3,0-.51-.24-.51-.51v-5.36c0-1.41-.73-2.3-2.03-2.3-1.41,0-2.27,.98-2.55,1.71v5.96c0,.38-.16,.51-.68,.51h-2c-.27,0-.51-.24-.51-.51V8.91Z"/>
      <path class="cls-1" d="M177.95,13.54v-1.81c0-.3,.22-.51,.51-.51h6.04c.3,0,.51,.22,.51,.51v1.81c0,.27-.22,.49-.51,.49h-6.04c-.3,0-.51-.22-.51-.49Z"/>
      <path class="cls-1" d="M188.68,11.24h-.92c-.27,0-.49-.24-.49-.51v-1.81c0-.3,.22-.51,.49-.51h.92v-3.01c0-.27,.24-.51,.51-.51l2.22-.03c.27,0,.49,.24,.49,.51v3.03h2.38c.3,0,.51,.22,.51,.51v1.81c0,.27-.22,.51-.51,.51h-2.38v4.33c0,.76,.41,.87,.84,.87,.46,0,1.03-.19,1.33-.3,.3-.11,.51,.03,.6,.3l.54,1.71c.11,.27-.03,.54-.3,.65-.14,.08-1.9,.7-3.22,.7-2.09,0-3.01-1.3-3.01-3.49v-4.77Z"/>
      <path class="cls-1" d="M202.16,8.13c3.06,0,5.55,2.6,5.55,5.66s-2.49,5.71-5.55,5.71-5.55-2.6-5.55-5.71,2.49-5.66,5.55-5.66Zm0,8.45c1.44,0,2.6-1.25,2.6-2.79s-1.16-2.74-2.6-2.74-2.6,1.22-2.6,2.74,1.14,2.79,2.6,2.79Z"/>
      <path class="cls-1" d="M209.01,18.44l3.52-4.74-3.41-4.52c-.27-.35-.05-.79,.41-.79h2.25c.35,0,.65,.03,.89,.38l1.76,2.55h.03l1.79-2.55c.22-.3,.43-.38,.81-.38h2.44c.46,0,.6,.43,.32,.79l-3.41,4.5,3.44,4.77c.24,.35,.11,.79-.33,.79h-2.38c-.35,0-.57-.16-.76-.43l-1.92-2.71h-.03l-2.06,2.92c-.08,.11-.3,.22-.43,.22h-2.6c-.46,0-.57-.43-.33-.79Z"/>
      <path class="cls-1" d="M221.96,2.68c0-1.03,.81-1.87,1.84-1.87s1.9,.84,1.9,1.87-.84,1.87-1.9,1.87-1.84-.84-1.84-1.87Zm.24,6.23c0-.3,.24-.51,.51-.51h2.25c.27,0,.51,.22,.51,.51v9.8c0,.27-.24,.51-.51,.51h-2.25c-.27,0-.51-.24-.51-.51V8.91Z"/>
      <path class="cls-1" d="M233.66,8.13c1.68,0,2.98,.68,4.01,1.92,.19,.24,.14,.57-.14,.76l-1.25,1.19c-.24,.22-.49,.08-.68-.08-.43-.49-1.11-.87-1.87-.87-1.46,0-2.65,1.25-2.65,2.76s1.16,2.76,2.63,2.76c1.17,0,1.68-.57,2.17-1.03,.19-.19,.46-.24,.68-.08l1.16,1c.27,.22,.38,.49,.19,.76-.92,1.44-2.36,2.28-4.28,2.28-3.06,0-5.74-2.44-5.74-5.69s2.74-5.69,5.77-5.69Z"/>
      <path class="cls-1" d="M249.8,12.38c1.08,0,1.98,.3,1.98,.3,.03-1.38-.41-1.87-1.41-1.87s-2.41,.22-3.03,.41c-.38,.11-.57-.14-.62-.49l-.24-1.41c-.08-.41,.14-.6,.38-.68,.22-.08,1.95-.51,3.68-.51,3.39,0,4.17,1.76,4.17,4.71v5.88c0,.27-.24,.51-.51,.51h-.97c-.19,0-.33-.08-.46-.38l-.33-.73c-.62,.57-1.62,1.38-3.3,1.38-2.17,0-3.66-1.41-3.66-3.71,0-1.92,1.57-3.41,4.33-3.41Zm.05,4.82c.87,0,1.71-.73,1.87-1.06v-1.49s-.73-.33-1.52-.33c-1.06,0-1.76,.6-1.76,1.46,0,.81,.57,1.41,1.41,1.41Z"/>
      <path class="cls-1" d="M257.81,8.91c0-.3,.24-.51,.51-.51h1.03c.24,0,.38,.14,.46,.33l.38,1c.41-.43,1.73-1.6,3.82-1.6,3.44,0,4.82,2.57,4.82,5.39v5.2c0,.27-.24,.51-.51,.51h-2.22c-.3,0-.51-.24-.51-.51v-5.36c0-1.41-.73-2.3-2.03-2.3-1.41,0-2.28,.98-2.55,1.71v5.96c0,.38-.16,.51-.68,.51h-2c-.27,0-.51-.24-.51-.51V8.91Z"/>
      <path class="cls-1" d="M276.42,8.13c1.08,0,1.92,.3,2.41,.49V.79c0-.27,.24-.51,.51-.51h2.3c.27,0,.51,.24,.51,.51V18.72c0,.27-.24,.51-.51,.51h-1.06c-.24,0-.43-.22-.51-.51l-.27-.84s-1.27,1.62-3.55,1.62c-2.95,0-5.2-2.57-5.2-5.69s2.14-5.69,5.36-5.69Zm.24,8.45c1.44,0,2.09-1.11,2.28-1.76v-3.14s-.76-.62-2.11-.62c-1.52,0-2.63,1.25-2.63,2.76s1.03,2.76,2.46,2.76Z"/>
      <path class="cls-1" d="M1.38,33.28c0-.27,.22-.51,.51-.51H12.92c.3,0,.51,.24,.51,.51v2.22c0,.27-.22,.51-.51,.51H4.9v4.44h6.69c.27,0,.51,.24,.51,.51v2.25c0,.3-.24,.51-.51,.51H4.9v4.74H12.92c.3,0,.51,.24,.51,.51v2.22c0,.27-.22,.51-.51,.51H1.9c-.3,0-.51-.24-.51-.51v-17.93Z"/>
      <path class="cls-1" d="M20.85,40.62c1.68,0,2.98,.68,4.01,1.92,.19,.24,.14,.57-.14,.76l-1.25,1.19c-.24,.22-.49,.08-.68-.08-.43-.49-1.11-.87-1.87-.87-1.46,0-2.65,1.25-2.65,2.76s1.16,2.76,2.63,2.76c1.17,0,1.68-.57,2.17-1.03,.19-.19,.46-.24,.68-.08l1.16,1c.27,.22,.38,.49,.19,.76-.92,1.44-2.36,2.28-4.28,2.28-3.06,0-5.74-2.44-5.74-5.69s2.74-5.69,5.77-5.69Z"/>
      <path class="cls-1" d="M32.17,40.62c3.06,0,5.55,2.6,5.55,5.66s-2.49,5.71-5.55,5.71-5.55-2.6-5.55-5.71,2.49-5.66,5.55-5.66Zm0,8.45c1.44,0,2.6-1.25,2.6-2.79s-1.16-2.74-2.6-2.74-2.6,1.22-2.6,2.74,1.14,2.79,2.6,2.79Z"/>
      <path class="cls-1" d="M40.78,43.74h-.92c-.3,0-.51-.24-.51-.51v-1.81c0-.3,.22-.51,.51-.51h.92v-2.93c0-3.58,2.19-5.47,5.06-5.47,1.44,0,2.71,.62,3.2,1.06,.16,.14,.22,.43,.11,.62l-.92,1.73c-.11,.22-.41,.27-.65,.14-.35-.22-1-.54-1.6-.54-1.16,0-1.81,.89-1.81,2.46v2.93h2.71c.3,0,.51,.22,.51,.51v1.81c0,.27-.22,.51-.51,.51h-2.71v7.48c0,.27-.24,.51-.51,.51h-2.36c-.27,0-.51-.24-.51-.51v-7.48Z"/>
      <path class="cls-1" d="M49.45,41.41c0-.3,.24-.51,.51-.51h1.03c.24,0,.41,.14,.49,.35l.38,1.06c.38-.54,1.38-1.68,3.06-1.68,1.27,0,2.41,.41,2.09,1.08l-1,1.76c-.14,.24-.41,.35-.62,.24-.08-.03-.49-.16-.79-.16-1.08,0-1.73,.73-1.92,1.11v6.55c0,.38-.24,.51-.62,.51h-2.09c-.27,0-.51-.24-.51-.51v-9.8Z"/>
      <path class="cls-1" d="M58.44,35.18c0-1.03,.81-1.87,1.84-1.87s1.9,.84,1.9,1.87-.84,1.87-1.9,1.87-1.84-.84-1.84-1.87Zm.24,6.23c0-.3,.24-.51,.51-.51h2.25c.27,0,.51,.22,.51,.51v9.8c0,.27-.24,.51-.51,.51h-2.25c-.27,0-.51-.24-.51-.51v-9.8Z"/>
      <path class="cls-1" d="M69.92,40.62c2.79,0,5.06,2.11,5.06,5.04,0,.19-.03,.54-.05,.73-.03,.27-.27,.46-.51,.46h-6.93c.08,1.11,1.03,2.36,2.6,2.36,.84,0,1.62-.32,2.11-.68,.27-.16,.51-.22,.7,0l1.11,1.27c.19,.19,.24,.49-.03,.7-.89,.84-2.27,1.49-4.04,1.49-3.25,0-5.55-2.57-5.55-5.69s2.3-5.69,5.53-5.69Zm1.9,4.33c-.08-1-.95-1.84-1.98-1.84-1.08,0-1.98,.81-2.11,1.84h4.09Z"/>
      <path class="cls-1" d="M77.26,41.41c0-.3,.24-.51,.51-.51h1.03c.24,0,.38,.14,.46,.32l.38,1c.41-.43,1.73-1.6,3.82-1.6,3.44,0,4.82,2.57,4.82,5.39v5.2c0,.27-.24,.51-.51,.51h-2.22c-.3,0-.51-.24-.51-.51v-5.36c0-1.41-.73-2.3-2.03-2.3-1.41,0-2.28,.98-2.55,1.71v5.96c0,.38-.16,.51-.68,.51h-2c-.27,0-.51-.24-.51-.51v-9.8Z"/>
      <path class="cls-1" d="M95.87,40.62c1.08,0,1.92,.3,2.41,.49v-7.83c0-.27,.24-.51,.51-.51h2.3c.27,0,.51,.24,.51,.51v17.93c0,.27-.24,.51-.51,.51h-1.06c-.24,0-.43-.22-.51-.51l-.27-.84s-1.27,1.62-3.55,1.62c-2.95,0-5.2-2.57-5.2-5.69s2.14-5.69,5.36-5.69Zm.24,8.45c1.44,0,2.09-1.11,2.27-1.76v-3.14s-.76-.62-2.11-.62c-1.52,0-2.63,1.25-2.63,2.76s1.03,2.76,2.46,2.76Z"/>
      <path class="cls-1" d="M104.86,33.28c0-.27,.24-.51,.51-.51h2.27c.27,0,.51,.24,.51,.51v17.93c0,.27-.24,.51-.51,.51h-2.27c-.27,0-.51-.24-.51-.51v-17.93Z"/>
      <path class="cls-1" d="M110,41.6c-.16-.35,.05-.7,.46-.7h2.44c.24,0,.38,.14,.46,.3l2.74,6.12h.03l2.71-6.12c.14-.27,.32-.3,.65-.3h2.17c.43,0,.65,.35,.46,.7l-8.29,17.93c-.08,.16-.24,.33-.46,.33h-2.33c-.41,0-.65-.35-.46-.73l3.85-8.15-4.41-9.37Z"/>
      <path class="cls-1" d="M134.87,40.62c1.68,0,2.98,.68,4.01,1.92,.19,.24,.14,.57-.14,.76l-1.25,1.19c-.24,.22-.49,.08-.68-.08-.43-.49-1.11-.87-1.87-.87-1.46,0-2.65,1.25-2.65,2.76s1.16,2.76,2.63,2.76c1.17,0,1.68-.57,2.17-1.03,.19-.19,.46-.24,.68-.08l1.16,1c.27,.22,.38,.49,.19,.76-.92,1.44-2.36,2.28-4.28,2.28-3.06,0-5.74-2.44-5.74-5.69s2.74-5.69,5.77-5.69Z"/>
      <path class="cls-1" d="M141.47,33.28c0-.27,.24-.51,.51-.51h2.27c.27,0,.51,.24,.51,.51v17.93c0,.27-.24,.51-.51,.51h-2.27c-.27,0-.51-.24-.51-.51v-17.93Z"/>
      <path class="cls-1" d="M152.74,40.62c2.79,0,5.06,2.11,5.06,5.04,0,.19-.03,.54-.05,.73-.03,.27-.27,.46-.51,.46h-6.93c.08,1.11,1.03,2.36,2.6,2.36,.84,0,1.62-.32,2.11-.68,.27-.16,.51-.22,.7,0l1.11,1.27c.19,.19,.24,.49-.03,.7-.89,.84-2.27,1.49-4.04,1.49-3.25,0-5.55-2.57-5.55-5.69s2.3-5.69,5.53-5.69Zm1.9,4.33c-.08-1-.95-1.84-1.98-1.84-1.08,0-1.98,.81-2.11,1.84h4.09Z"/>
      <path class="cls-1" d="M163.63,44.88c1.08,0,1.98,.3,1.98,.3,.03-1.38-.41-1.87-1.41-1.87s-2.41,.22-3.03,.41c-.38,.11-.57-.14-.62-.49l-.24-1.41c-.08-.41,.14-.6,.38-.68,.22-.08,1.95-.51,3.68-.51,3.39,0,4.17,1.76,4.17,4.71v5.88c0,.27-.24,.51-.51,.51h-.97c-.19,0-.33-.08-.46-.38l-.33-.73c-.62,.57-1.62,1.38-3.3,1.38-2.17,0-3.66-1.41-3.66-3.71,0-1.92,1.57-3.41,4.33-3.41Zm.05,4.82c.87,0,1.71-.73,1.87-1.06v-1.49s-.73-.33-1.52-.33c-1.06,0-1.76,.6-1.76,1.46,0,.81,.57,1.41,1.41,1.41Z"/>
      <path class="cls-1" d="M171.64,41.41c0-.3,.24-.51,.51-.51h1.03c.24,0,.38,.14,.46,.32l.38,1c.41-.43,1.73-1.6,3.82-1.6,3.44,0,4.82,2.57,4.82,5.39v5.2c0,.27-.24,.51-.51,.51h-2.22c-.3,0-.51-.24-.51-.51v-5.36c0-1.41-.73-2.3-2.03-2.3-1.41,0-2.28,.98-2.55,1.71v5.96c0,.38-.16,.51-.68,.51h-2c-.27,0-.51-.24-.51-.51v-9.8Z"/>
      <path class="cls-1" d="M185.45,35.18c0-1.03,.81-1.87,1.84-1.87s1.9,.84,1.9,1.87-.84,1.87-1.9,1.87-1.84-.84-1.84-1.87Zm.24,6.23c0-.3,.24-.51,.51-.51h2.25c.27,0,.51,.22,.51,.51v9.8c0,.27-.24,.51-.51,.51h-2.25c-.27,0-.51-.24-.51-.51v-9.8Z"/>
      <path class="cls-1" d="M192.22,41.41c0-.3,.24-.51,.51-.51h1.03c.24,0,.38,.14,.46,.32l.38,1c.41-.43,1.73-1.6,3.82-1.6,3.44,0,4.82,2.57,4.82,5.39v5.2c0,.27-.24,.51-.51,.51h-2.22c-.3,0-.51-.24-.51-.51v-5.36c0-1.41-.73-2.3-2.03-2.3-1.41,0-2.28,.98-2.55,1.71v5.96c0,.38-.16,.51-.68,.51h-2c-.27,0-.51-.24-.51-.51v-9.8Z"/>
      <path class="cls-1" d="M207.17,47.88s-.81-.92-.81-2.55c0-2.52,2.03-4.71,4.71-4.71h4.93c.3,0,.51,.22,.51,.51v.89c0,.19-.11,.41-.3,.46l-1.52,.49s1.08,.84,1.08,2.76c0,2.14-1.79,4.25-4.63,4.25-1.03,0-1.73-.22-2.17-.22-.38,0-1,.38-1,1.03,0,.57,.49,.92,1.08,.92h3.47c2.46,0,4.47,1.41,4.47,3.79s-2,4.6-5.93,4.6-5.53-1.98-5.53-3.71c0-1.62,1.35-2.41,1.63-2.57v-.08c-.46-.14-2.03-.87-2.03-2.84,0-2.11,2.03-3.03,2.03-3.03Zm3.87,9.53c1.52,0,2.52-.68,2.52-1.71,0-.49-.38-1.33-1.98-1.33-.6,0-1.19,.03-1.76,.11-.33,.11-1.17,.49-1.17,1.33,0,.95,.92,1.6,2.38,1.6Zm.11-9.99c1.11,0,1.87-.81,1.87-1.95s-.76-1.95-1.87-1.95-1.9,.81-1.9,1.95,.81,1.95,1.9,1.95Z"/>
      <path class="cls-1" d="M224.78,41.41c0-.3,.24-.51,.51-.51h1c.24,0,.41,.14,.46,.3l.38,1.03c.46-.51,1.71-1.6,3.63-1.6,1.54,0,2.63,.6,3.52,1.68,.46-.49,1.87-1.68,3.82-1.68,3.47,0,4.74,2.57,4.74,5.42v5.17c0,.27-.22,.51-.51,.51h-2.19c-.3,0-.51-.24-.51-.51v-5.36c0-1.41-.68-2.3-2.03-2.3-1.57,0-2.28,1.14-2.28,1.14,0,0,.03,.54,.03,1.03v5.5c0,.27-.24,.51-.51,.51h-2.03c-.3,0-.51-.24-.51-.51v-5.36c0-1.41-.62-2.3-2-2.3s-2,.98-2.27,1.71v5.96c0,.27-.24,.51-.51,.51h-2.19c-.27,0-.51-.24-.51-.51v-9.8Z"/>
      <path class="cls-1" d="M250.58,40.62c2.79,0,5.06,2.11,5.06,5.04,0,.19-.03,.54-.05,.73-.03,.27-.27,.46-.51,.46h-6.93c.08,1.11,1.03,2.36,2.6,2.36,.84,0,1.63-.32,2.11-.68,.27-.16,.51-.22,.7,0l1.11,1.27c.19,.19,.24,.49-.03,.7-.89,.84-2.27,1.49-4.04,1.49-3.25,0-5.55-2.57-5.55-5.69s2.3-5.69,5.53-5.69Zm1.9,4.33c-.08-1-.95-1.84-1.98-1.84-1.08,0-1.98,.81-2.11,1.84h4.09Z"/>
      <path class="cls-1" d="M258.49,43.74h-.92c-.27,0-.49-.24-.49-.51v-1.81c0-.3,.22-.51,.49-.51h.92v-3.01c0-.27,.24-.51,.51-.51l2.22-.03c.27,0,.49,.24,.49,.51v3.03h2.38c.3,0,.51,.22,.51,.51v1.81c0,.27-.22,.51-.51,.51h-2.38v4.33c0,.76,.41,.87,.84,.87,.46,0,1.03-.19,1.33-.3,.3-.11,.51,.03,.6,.3l.54,1.71c.11,.27-.03,.54-.3,.65-.14,.08-1.9,.7-3.22,.7-2.09,0-3.01-1.3-3.01-3.49v-4.77Z"/>
      <path class="cls-1" d="M267.27,33.28c0-.27,.24-.51,.51-.51h2.3c.27,0,.51,.24,.51,.51v8.23c.54-.41,1.6-.89,2.87-.89,3.44,0,4.85,2.65,4.85,5.39v5.2c0,.27-.24,.51-.51,.51h-2.19c-.3,0-.51-.24-.51-.51v-5.23c0-1.49-.84-2.44-2.14-2.44s-2.09,.81-2.36,1.92v5.74c0,.3-.16,.51-.57,.51h-2.25c-.27,0-.51-.24-.51-.51v-17.93Z"/>
      <path class="cls-1" d="M286.06,40.62c3.06,0,5.55,2.6,5.55,5.66s-2.49,5.71-5.55,5.71-5.55-2.6-5.55-5.71,2.49-5.66,5.55-5.66Zm0,8.45c1.44,0,2.6-1.25,2.6-2.79s-1.16-2.74-2.6-2.74-2.6,1.22-2.6,2.74,1.14,2.79,2.6,2.79Z"/>
      <path class="cls-1" d="M298.57,40.62c1.08,0,1.92,.3,2.41,.49v-7.83c0-.27,.24-.51,.51-.51h2.3c.27,0,.51,.24,.51,.51v17.93c0,.27-.24,.51-.51,.51h-1.06c-.24,0-.43-.22-.51-.51l-.27-.84s-1.27,1.62-3.55,1.62c-2.95,0-5.2-2.57-5.2-5.69s2.14-5.69,5.36-5.69Zm.24,8.45c1.44,0,2.09-1.11,2.28-1.76v-3.14s-.76-.62-2.11-.62c-1.52,0-2.63,1.25-2.63,2.76s1.03,2.76,2.46,2.76Z"/>
      <path class="cls-1" d="M306.97,50.43l.73-1.46c.11-.27,.38-.32,.62-.19,0,0,1.22,.65,2.46,.65,.54,0,.92-.22,.92-.68,0-.49-.38-.79-1.81-1.35-2.08-.81-3.06-1.92-3.06-3.58s1.22-3.2,3.98-3.2c1.6,0,2.76,.46,3.33,.84,.24,.16,.38,.46,.24,.73l-.68,1.38c-.14,.24-.43,.27-.65,.19,0,0-1.22-.57-2.25-.57-.65,0-.92,.27-.92,.62,0,.49,.49,.65,1.49,1.06,2.08,.81,3.66,1.71,3.66,3.82,0,1.79-1.57,3.3-4.31,3.3-1.79,0-3.03-.57-3.6-1-.16-.14-.27-.35-.16-.57Z"/>
      <path class="cls-1" d="M323.97,43.74h-.92c-.27,0-.49-.24-.49-.51v-1.81c0-.3,.22-.51,.49-.51h.92v-3.01c0-.27,.24-.51,.51-.51l2.22-.03c.27,0,.49,.24,.49,.51v3.03h2.38c.3,0,.51,.22,.51,.51v1.81c0,.27-.22,.51-.51,.51h-2.38v4.33c0,.76,.41,.87,.84,.87,.46,0,1.03-.19,1.33-.3,.3-.11,.51,.03,.6,.3l.54,1.71c.11,.27-.03,.54-.3,.65-.13,.08-1.9,.7-3.22,.7-2.09,0-3.01-1.3-3.01-3.49v-4.77Z"/>
      <path class="cls-1" d="M337.46,40.62c3.06,0,5.55,2.6,5.55,5.66s-2.49,5.71-5.55,5.71-5.55-2.6-5.55-5.71,2.49-5.66,5.55-5.66Zm0,8.45c1.44,0,2.6-1.25,2.6-2.79s-1.16-2.74-2.6-2.74-2.6,1.22-2.6,2.74,1.14,2.79,2.6,2.79Z"/>
      <path class="cls-1" d="M.54,65.78c0-.27,.24-.51,.51-.51H3.36c.27,0,.51,.24,.51,.51v11.73l3.74-3.79c.19-.16,.38-.32,.68-.32h2.46c.46,0,.62,.49,.35,.79l-4.04,4.12,4.82,5.17c.27,.3,.11,.76-.35,.76h-2.92c-.16,0-.38-.11-.46-.22l-4.28-4.88v4.58c0,.27-.24,.51-.51,.51H1.06c-.27,0-.51-.24-.51-.51v-17.93Z"/>
      <path class="cls-1" d="M18.28,73.12c2.79,0,5.06,2.11,5.06,5.04,0,.19-.03,.54-.05,.73-.03,.27-.27,.46-.51,.46h-6.93c.08,1.11,1.03,2.36,2.6,2.36,.84,0,1.63-.33,2.11-.68,.27-.16,.51-.22,.7,0l1.11,1.27c.19,.19,.24,.49-.03,.7-.89,.84-2.27,1.49-4.04,1.49-3.25,0-5.55-2.57-5.55-5.69s2.3-5.69,5.53-5.69Zm1.9,4.33c-.08-1-.95-1.84-1.98-1.84-1.08,0-1.98,.81-2.11,1.84h4.09Z"/>
      <path class="cls-1" d="M30.33,73.12c2.79,0,5.06,2.11,5.06,5.04,0,.19-.03,.54-.05,.73-.03,.27-.27,.46-.51,.46h-6.93c.08,1.11,1.03,2.36,2.6,2.36,.84,0,1.62-.33,2.11-.68,.27-.16,.51-.22,.7,0l1.11,1.27c.19,.19,.24,.49-.03,.7-.89,.84-2.27,1.49-4.04,1.49-3.25,0-5.55-2.57-5.55-5.69s2.3-5.69,5.53-5.69Zm1.9,4.33c-.08-1-.95-1.84-1.98-1.84-1.08,0-1.98,.81-2.11,1.84h4.09Z"/>
      <path class="cls-1" d="M41,91.84c0,.32-.16,.51-.65,.51h-2.17c-.27,0-.51-.24-.51-.51v-17.93c0-.3,.24-.51,.51-.51h1.06c.19,0,.38,.11,.46,.32l.35,.89c.41-.54,1.73-1.49,3.49-1.49,2.98,0,5.23,2.57,5.23,5.69s-2.44,5.69-5.36,5.69c-1.06,0-2.03-.38-2.41-.6v7.94Zm1.98-10.27c1.52,0,2.63-1.25,2.63-2.76s-1.03-2.76-2.52-2.76c-1.38,0-2.06,1.08-2.22,1.65v3.25s.76,.62,2.11,.62Z"/>
      <path class="cls-1" d="M55.79,74.1c-.16-.35,.05-.7,.46-.7h2.44c.24,0,.38,.13,.46,.3l2.74,6.12h.03l2.71-6.12c.14-.27,.32-.3,.65-.3h2.17c.43,0,.65,.35,.46,.7l-8.29,17.93c-.08,.16-.24,.33-.46,.33h-2.33c-.41,0-.65-.35-.46-.73l3.85-8.15-4.41-9.37Z"/>
      <path class="cls-1" d="M74.45,73.12c3.06,0,5.55,2.6,5.55,5.66s-2.49,5.71-5.55,5.71-5.55-2.6-5.55-5.71,2.49-5.66,5.55-5.66Zm0,8.45c1.44,0,2.6-1.25,2.6-2.79s-1.16-2.74-2.6-2.74-2.6,1.22-2.6,2.74,1.14,2.79,2.6,2.79Z"/>
      <path class="cls-1" d="M82.22,73.91c0-.3,.24-.51,.51-.51h2.22c.27,0,.51,.22,.51,.51v5.34c0,1.44,.73,2.33,1.98,2.33,1.14,0,2-1.06,2.17-2.03v-5.63c0-.41,.16-.51,.6-.51h2.06c.27,0,.51,.22,.51,.51v9.8c0,.27-.24,.51-.51,.51h-1c-.27,0-.43-.19-.51-.41l-.33-.89c-.49,.43-1.49,1.57-3.63,1.57-3.36,0-4.58-2.57-4.58-5.34v-5.25Z"/>
      <path class="cls-1" d="M96.03,73.91c0-.3,.24-.51,.51-.51h1.03c.24,0,.41,.13,.49,.35l.38,1.06c.38-.54,1.38-1.68,3.06-1.68,1.27,0,2.41,.41,2.09,1.08l-1,1.76c-.14,.24-.41,.35-.62,.24-.08-.03-.49-.16-.79-.16-1.08,0-1.73,.73-1.92,1.11v6.55c0,.38-.24,.51-.62,.51h-2.09c-.27,0-.51-.24-.51-.51v-9.8Z"/>
      <path class="cls-1" d="M111.25,65.78c0-.27,.24-.51,.51-.51h2.3c.27,0,.51,.24,.51,.51v8.23c.54-.41,1.6-.89,2.87-.89,3.44,0,4.85,2.65,4.85,5.39v5.2c0,.27-.24,.51-.51,.51h-2.19c-.3,0-.51-.24-.51-.51v-5.23c0-1.49-.84-2.44-2.14-2.44s-2.09,.81-2.36,1.92v5.74c0,.3-.16,.51-.57,.51h-2.25c-.27,0-.51-.24-.51-.51v-17.93Z"/>
      <path class="cls-1" d="M130.05,73.12c3.06,0,5.55,2.6,5.55,5.66s-2.49,5.71-5.55,5.71-5.55-2.6-5.55-5.71,2.49-5.66,5.55-5.66Zm0,8.45c1.44,0,2.6-1.25,2.6-2.79s-1.16-2.74-2.6-2.74-2.6,1.22-2.6,2.74,1.14,2.79,2.6,2.79Z"/>
      <path class="cls-1" d="M138.01,73.91c0-.3,.24-.51,.51-.51h1c.24,0,.41,.13,.46,.3l.38,1.03c.46-.51,1.71-1.6,3.63-1.6,1.54,0,2.63,.6,3.52,1.68,.46-.49,1.87-1.68,3.82-1.68,3.47,0,4.74,2.57,4.74,5.42v5.17c0,.27-.22,.51-.51,.51h-2.19c-.3,0-.51-.24-.51-.51v-5.36c0-1.41-.68-2.3-2.03-2.3-1.57,0-2.28,1.14-2.28,1.14,0,0,.03,.54,.03,1.03v5.5c0,.27-.24,.51-.51,.51h-2.03c-.3,0-.51-.24-.51-.51v-5.36c0-1.41-.62-2.3-2-2.3s-2,.98-2.27,1.71v5.96c0,.27-.24,.51-.51,.51h-2.19c-.27,0-.51-.24-.51-.51v-9.8Z"/>
      <path class="cls-1" d="M163.82,73.12c2.79,0,5.06,2.11,5.06,5.04,0,.19-.03,.54-.05,.73-.03,.27-.27,.46-.51,.46h-6.93c.08,1.11,1.03,2.36,2.6,2.36,.84,0,1.63-.33,2.11-.68,.27-.16,.51-.22,.7,0l1.11,1.27c.19,.19,.24,.49-.03,.7-.89,.84-2.27,1.49-4.04,1.49-3.25,0-5.55-2.57-5.55-5.69s2.3-5.69,5.53-5.69Zm1.9,4.33c-.08-1-.95-1.84-1.98-1.84-1.08,0-1.98,.81-2.11,1.84h4.09Z"/>
      <path class="cls-1" d="M178.03,80.38s-.81-.92-.81-2.55c0-2.52,2.03-4.71,4.71-4.71h4.93c.3,0,.51,.22,.51,.51v.89c0,.19-.11,.41-.3,.46l-1.52,.49s1.08,.84,1.08,2.76c0,2.14-1.79,4.25-4.63,4.25-1.03,0-1.73-.22-2.17-.22-.38,0-1,.38-1,1.03,0,.57,.49,.92,1.08,.92h3.47c2.46,0,4.47,1.41,4.47,3.79s-2,4.6-5.93,4.6-5.53-1.98-5.53-3.71c0-1.62,1.35-2.41,1.63-2.57v-.08c-.46-.13-2.03-.87-2.03-2.84,0-2.11,2.03-3.03,2.03-3.03Zm3.87,9.53c1.52,0,2.52-.68,2.52-1.71,0-.49-.38-1.33-1.98-1.33-.6,0-1.19,.03-1.76,.11-.33,.11-1.17,.49-1.17,1.33,0,.95,.92,1.6,2.38,1.6Zm.11-9.99c1.11,0,1.87-.81,1.87-1.95s-.76-1.95-1.87-1.95-1.9,.81-1.9,1.95,.81,1.95,1.9,1.95Z"/>
      <path class="cls-1" d="M189.65,73.91c0-.3,.24-.51,.51-.51h1.03c.24,0,.41,.13,.49,.35l.38,1.06c.38-.54,1.38-1.68,3.06-1.68,1.27,0,2.41,.41,2.09,1.08l-1,1.76c-.14,.24-.41,.35-.62,.24-.08-.03-.49-.16-.79-.16-1.08,0-1.73,.73-1.92,1.11v6.55c0,.38-.24,.51-.62,.51h-2.09c-.27,0-.51-.24-.51-.51v-9.8Z"/>
      <path class="cls-1" d="M203.52,73.12c2.79,0,5.06,2.11,5.06,5.04,0,.19-.03,.54-.05,.73-.03,.27-.27,.46-.51,.46h-6.93c.08,1.11,1.03,2.36,2.6,2.36,.84,0,1.63-.33,2.11-.68,.27-.16,.51-.22,.7,0l1.11,1.27c.19,.19,.24,.49-.03,.7-.89,.84-2.27,1.49-4.04,1.49-3.25,0-5.55-2.57-5.55-5.69s2.3-5.69,5.53-5.69Zm1.9,4.33c-.08-1-.95-1.84-1.98-1.84-1.08,0-1.98,.81-2.11,1.84h4.09Z"/>
      <path class="cls-1" d="M215.57,73.12c2.79,0,5.06,2.11,5.06,5.04,0,.19-.03,.54-.05,.73-.03,.27-.27,.46-.51,.46h-6.93c.08,1.11,1.03,2.36,2.6,2.36,.84,0,1.62-.33,2.11-.68,.27-.16,.51-.22,.7,0l1.11,1.27c.19,.19,.24,.49-.03,.7-.89,.84-2.27,1.49-4.04,1.49-3.25,0-5.55-2.57-5.55-5.69s2.3-5.69,5.53-5.69Zm1.9,4.33c-.08-1-.95-1.84-1.98-1.84-1.08,0-1.98,.81-2.11,1.84h4.09Z"/>
      <path class="cls-1" d="M222.91,73.91c0-.3,.24-.51,.51-.51h1.03c.24,0,.38,.13,.46,.32l.38,1c.41-.43,1.73-1.6,3.82-1.6,3.44,0,4.82,2.57,4.82,5.39v5.2c0,.27-.24,.51-.51,.51h-2.22c-.3,0-.51-.24-.51-.51v-5.36c0-1.41-.73-2.3-2.03-2.3-1.41,0-2.28,.98-2.55,1.71v5.96c0,.38-.16,.51-.68,.51h-2c-.27,0-.51-.24-.51-.51v-9.8Z"/>
      <path class="cls-1" d="M246.5,77.37c1.08,0,1.98,.3,1.98,.3,.03-1.38-.41-1.87-1.41-1.87s-2.41,.22-3.03,.41c-.38,.11-.57-.14-.62-.49l-.24-1.41c-.08-.41,.14-.6,.38-.68,.22-.08,1.95-.51,3.68-.51,3.39,0,4.17,1.76,4.17,4.71v5.88c0,.27-.24,.51-.51,.51h-.97c-.19,0-.33-.08-.46-.38l-.33-.73c-.62,.57-1.62,1.38-3.3,1.38-2.17,0-3.66-1.41-3.66-3.71,0-1.92,1.57-3.41,4.33-3.41Zm.05,4.82c.87,0,1.71-.73,1.87-1.06v-1.49s-.73-.33-1.52-.33c-1.06,0-1.76,.6-1.76,1.46,0,.81,.57,1.41,1.41,1.41Z"/>
      <path class="cls-1" d="M254.51,73.91c0-.3,.24-.51,.51-.51h1.03c.24,0,.38,.13,.46,.32l.38,1c.41-.43,1.73-1.6,3.82-1.6,3.44,0,4.82,2.57,4.82,5.39v5.2c0,.27-.24,.51-.51,.51h-2.22c-.3,0-.51-.24-.51-.51v-5.36c0-1.41-.73-2.3-2.03-2.3-1.41,0-2.28,.98-2.55,1.71v5.96c0,.38-.16,.51-.68,.51h-2c-.27,0-.51-.24-.51-.51v-9.8Z"/>
      <path class="cls-1" d="M273.12,73.12c1.08,0,1.92,.3,2.41,.49v-7.83c0-.27,.24-.51,.51-.51h2.3c.27,0,.51,.24,.51,.51v17.93c0,.27-.24,.51-.51,.51h-1.06c-.24,0-.43-.22-.51-.51l-.27-.84s-1.27,1.62-3.55,1.62c-2.95,0-5.2-2.57-5.2-5.69s2.14-5.69,5.36-5.69Zm.24,8.45c1.43,0,2.08-1.11,2.27-1.76v-3.14s-.76-.62-2.11-.62c-1.52,0-2.63,1.25-2.63,2.76s1.03,2.76,2.46,2.76Z"/>
      <path class="cls-1" d="M293.02,73.12c1.68,0,2.98,.68,4.01,1.92,.19,.24,.14,.57-.13,.76l-1.25,1.19c-.24,.22-.49,.08-.68-.08-.43-.49-1.11-.87-1.87-.87-1.46,0-2.65,1.25-2.65,2.76s1.17,2.76,2.63,2.76c1.17,0,1.68-.57,2.17-1.03,.19-.19,.46-.24,.68-.08l1.17,1c.27,.22,.38,.49,.19,.76-.92,1.44-2.36,2.28-4.28,2.28-3.06,0-5.74-2.44-5.74-5.69s2.74-5.69,5.77-5.69Z"/>
      <path class="cls-1" d="M299.63,65.78c0-.27,.24-.51,.51-.51h2.28c.27,0,.51,.24,.51,.51v17.93c0,.27-.24,.51-.51,.51h-2.28c-.27,0-.51-.24-.51-.51v-17.93Z"/>
      <path class="cls-1" d="M310.9,73.12c2.79,0,5.06,2.11,5.06,5.04,0,.19-.03,.54-.05,.73-.03,.27-.27,.46-.51,.46h-6.93c.08,1.11,1.03,2.36,2.6,2.36,.84,0,1.62-.33,2.11-.68,.27-.16,.51-.22,.7,0l1.11,1.27c.19,.19,.24,.49-.03,.7-.89,.84-2.28,1.49-4.04,1.49-3.25,0-5.55-2.57-5.55-5.69s2.3-5.69,5.53-5.69Zm1.9,4.33c-.08-1-.95-1.84-1.98-1.84-1.08,0-1.98,.81-2.11,1.84h4.09Z"/>
      <path class="cls-1" d="M321.78,77.37c1.08,0,1.98,.3,1.98,.3,.03-1.38-.41-1.87-1.41-1.87s-2.41,.22-3.03,.41c-.38,.11-.57-.14-.62-.49l-.24-1.41c-.08-.41,.14-.6,.38-.68,.22-.08,1.95-.51,3.68-.51,3.39,0,4.17,1.76,4.17,4.71v5.88c0,.27-.24,.51-.51,.51h-.97c-.19,0-.33-.08-.46-.38l-.32-.73c-.62,.57-1.63,1.38-3.3,1.38-2.17,0-3.66-1.41-3.66-3.71,0-1.92,1.57-3.41,4.33-3.41Zm.05,4.82c.87,0,1.71-.73,1.87-1.06v-1.49s-.73-.33-1.52-.33c-1.06,0-1.76,.6-1.76,1.46,0,.81,.57,1.41,1.41,1.41Z"/>
      <path class="cls-1" d="M329.8,73.91c0-.3,.24-.51,.51-.51h1.03c.24,0,.38,.13,.46,.32l.38,1c.41-.43,1.73-1.6,3.82-1.6,3.44,0,4.82,2.57,4.82,5.39v5.2c0,.27-.24,.51-.51,.51h-2.22c-.3,0-.51-.24-.51-.51v-5.36c0-1.41-.73-2.3-2.03-2.3-1.41,0-2.28,.98-2.55,1.71v5.96c0,.38-.16,.51-.68,.51h-2c-.27,0-.51-.24-.51-.51v-9.8Z"/>
      <path class="cls-1" d="M345.4,80.03c1.22,0,2.25,1.03,2.25,2.25s-1.03,2.22-2.25,2.22-2.22-1-2.22-2.22,1-2.25,2.22-2.25Z"/>
    </g>
  </g>
</svg>