<?xml version="1.0" encoding="UTF-8"?>
<svg id="Layer_2" data-name="Layer 2" xmlns="http://www.w3.org/2000/svg" viewBox="0 0 382.02 582.27">
  <defs>
    <style>
      .cls-1 {
        fill: #1b753f;
      }
    </style>
  </defs>
  <g id="Layer_1-2" data-name="Layer 1">
    <g id="Layer_27" data-name="Layer 27">
      <path class="cls-1" d="m321.82,421.25c38.82-38.8,60.19-90.46,60.19-145.46s-21.37-106.68-60.17-145.44l-28.94-28.96-60.96,60.96-.19-.17-49.78,49.8,1.16,110.68,97.38-71.67c3.29,34.08-9.97,74.8-32.06,96.88l-56.94,56.96-58.7-58.72c-18.76-18.74-29.07-43.7-29.07-70.33s10.31-51.57,29.07-70.31l132.07-132.11L193.46,1.93l-1.95-1.93L59.42,132.09C21.11,170.42,0,221.46,0,275.79s21.11,105.39,59.42,143.72l96.22,96.19v66.56h68.92c.99,0,1.79-.8,1.79-1.79v-63.73l95.47-95.49Z"/>
    </g>
  </g>
</svg>