<?xml version="1.0" encoding="UTF-8"?>
<svg id="Layer_2" data-name="Layer 2" xmlns="http://www.w3.org/2000/svg" viewBox="0 0 210.76 501.67">
  <defs>
    <style>
      .cls-1 {
        letter-spacing: -.05em;
      }

      .cls-2 {
        fill: #fff;
      }

      .cls-3 {
        fill: #14355a;
        font-family: BrandonGrotesque-Bold, 'Brandon Grotesque';
        font-size: 14px;
        font-weight: 700;
      }

      .cls-4 {
        opacity: .32;
      }

      .cls-4, .cls-5, .cls-6 {
        fill: #79a58a;
      }

      .cls-7, .cls-8, .cls-9 {
        stroke: #1f7541;
        stroke-linecap: round;
        stroke-miterlimit: 10;
      }

      .cls-7, .cls-10, .cls-11 {
        fill: #1f7541;
      }

      .cls-12, .cls-10 {
        opacity: .5;
      }

      .cls-13 {
        letter-spacing: -.01em;
      }

      .cls-14 {
        letter-spacing: -.01em;
      }

      .cls-15 {
        letter-spacing: 0em;
      }

      .cls-16 {
        letter-spacing: -.03em;
      }

      .cls-17 {
        fill: #1d7540;
      }

      .cls-8 {
        stroke-width: 2px;
      }

      .cls-8, .cls-9 {
        fill: none;
      }

      .cls-9 {
        stroke-width: .75px;
      }

      .cls-18 {
        letter-spacing: -.06em;
      }

      .cls-19 {
        letter-spacing: -.02em;
      }

      .cls-20 {
        letter-spacing: -.02em;
      }

      .cls-6 {
        opacity: .36;
      }
    </style>
  </defs>
  <g id="Layer_7" data-name="Layer 7">
    <text class="cls-3" transform="translate(68.64 382.7)"><tspan x="0" y="0">Low moistu</tspan><tspan class="cls-15" x="63.14" y="0">r</tspan><tspan x="67.87" y="0">e minimizes </tspan><tspan x="0" y="16.8">mold and dust mites</tspan></text>
    <text class="cls-3" transform="translate(68.64 475.91)"><tspan class="cls-18" x="0" y="0">W</tspan><tspan x="11.79" y="0">e always deodorize </tspan><tspan x="0" y="16.8">and do</tspan><tspan class="cls-1" x="36.89" y="16.8">n</tspan><tspan class="cls-13" x="43.51" y="16.8">&apos;</tspan><tspan x="45.76" y="16.8">t cha</tspan><tspan class="cls-14" x="72.91" y="16.8">r</tspan><tspan x="77.49" y="16.8">ge extra</tspan></text>
    <text class="cls-3" transform="translate(69.6 201.44)"><tspan class="cls-20" x="0" y="0">E</tspan><tspan x="7.98" y="0">ncapsulation leaves </tspan><tspan x="0" y="16.8">no sticky </tspan><tspan class="cls-15" x="52.6" y="16.8">r</tspan><tspan x="57.33" y="16.8">esidues</tspan></text>
    <text class="cls-3" transform="translate(66.36 125.48)"><tspan class="cls-19" x="0" y="0">N</tspan><tspan x="10.51" y="0">o fumes or pollution</tspan></text>
    <g>
      <circle class="cls-4" cx="10.57" cy="213.21" r="10.57"/>
      <circle class="cls-4" cx="40.16" cy="198.27" r="10.57"/>
      <g>
        <g>
          <rect class="cls-5" x="22.82" y="195.28" width="7.39" height="8.17" transform="translate(-174.15 185.72) rotate(-78.53)"/>
          <path class="cls-17" d="m31.3,196.57l-.19-.04-1.47,7.24.19.04c1.99.4,3.95-.89,4.35-2.89s-.89-3.95-2.89-4.35Z"/>
          <path class="cls-17" d="m23.26,194.95c-1.97-.37-3.89.92-4.29,2.89-.4,1.97.87,3.91,2.83,4.34l1.47-7.23Z"/>
        </g>
        <g>
          <rect class="cls-5" x="10.29" y="209.13" width="8.17" height="7.39" transform="translate(-131.07 56.79) rotate(-39.12)"/>
          <path class="cls-17" d="m13.5,218.3l.15-.12-4.66-5.73-.15.12c-1.58,1.28-1.82,3.62-.53,5.2,1.28,1.58,3.62,1.82,5.2.53Z"/>
          <path class="cls-17" d="m19.86,213.12c1.53-1.29,1.76-3.6.49-5.16s-3.57-1.81-5.15-.57l4.66,5.73Z"/>
        </g>
        <g>
          <rect class="cls-5" x="33.57" y="208.2" width="10.58" height="9.57" transform="translate(-137.18 86.95) rotate(-44.06)"/>
          <path class="cls-17" d="m39.38,205.82l-.18.17,6.65,6.88.18-.17c1.89-1.83,1.94-4.87.11-6.77-1.83-1.89-4.87-1.94-6.77-.11Z"/>
          <path class="cls-17" d="m31.75,213.21c-1.84,1.84-1.87,4.84-.06,6.71s4.81,1.94,6.71.16l-6.65-6.87Z"/>
        </g>
        <path class="cls-5" d="m28.82,210.23c.31-.1.6-.22.88-.36-.27-.14-.57-.26-.88-.36-.95-.3-1.66-1.06-1.96-2.01,0,0,0-.01,0-.02-.09-.27-.19-.54-.34-.8-.15.26-.25.52-.34.8-.02.05-.03.11-.05.16-.26.89-.95,1.58-1.84,1.84-.05.02-.11.03-.16.05-.27.09-.54.19-.8.34.26.15.52.25.8.34.1.03.2.06.3.09.81.22,1.43.86,1.66,1.66.11.39.25.76.43,1.09.14-.27.26-.57.36-.88.29-.92,1.02-1.65,1.94-1.94Z"/>
        <path class="cls-5" d="m11.18,201.82c.31-.1.6-.22.88-.36-.27-.14-.57-.26-.88-.36-.95-.3-1.66-1.06-1.96-2.01,0,0,0-.01,0-.02-.09-.27-.19-.54-.34-.8-.15.26-.25.52-.34.8-.02.05-.03.11-.05.16-.26.89-.95,1.58-1.84,1.84-.05.02-.11.03-.16.05-.27.09-.54.19-.8.34.26.15.52.25.8.34.1.03.2.06.3.09.81.22,1.43.86,1.66,1.66.11.39.25.76.43,1.09.14-.27.26-.57.36-.88.29-.92,1.02-1.65,1.94-1.94Z"/>
        <path class="cls-5" d="m45.65,196.55c.31-.1.6-.22.88-.36-.27-.14-.57-.26-.88-.36-.95-.3-1.66-1.06-1.96-2.01,0,0,0-.01,0-.02-.09-.27-.19-.54-.34-.8-.15.26-.25.52-.34.8-.02.05-.03.11-.05.16-.26.89-.95,1.58-1.84,1.84-.05.02-.11.03-.16.05-.27.09-.54.19-.8.34.26.15.52.25.8.34.1.03.2.06.3.09.81.22,1.43.86,1.66,1.66.11.39.25.76.43,1.09.14-.27.26-.57.36-.88.29-.92,1.02-1.65,1.94-1.94Z"/>
        <path class="cls-5" d="m19.14,223.65c.31-.1.6-.22.88-.36-.27-.14-.57-.26-.88-.36-.95-.3-1.66-1.06-1.96-2.01,0,0,0-.01,0-.02-.09-.27-.19-.54-.34-.8-.15.26-.25.52-.34.8-.02.05-.03.11-.05.16-.26.89-.95,1.58-1.84,1.84-.05.02-.11.03-.16.05-.27.09-.54.19-.8.34.26.15.52.25.8.34.1.03.2.06.3.09.81.22,1.43.86,1.66,1.66.11.39.25.76.43,1.09.14-.27.26-.57.36-.88.29-.92,1.02-1.65,1.94-1.94Z"/>
      </g>
    </g>
    <g>
      <path class="cls-10" d="m35.89,394.63c0,9.09-6.38,14.72-14.26,14.72s-14.26-5.63-14.26-14.72,14.26-33.87,14.26-33.87c0,0,14.26,24.78,14.26,33.87Z"/>
      <circle class="cls-11" cx="46.01" cy="394.8" r="5.8"/>
      <circle class="cls-11" cx="26.85" cy="377.05" r="6.03"/>
      <polygon class="cls-11" points="45.16 371.02 37.33 371.02 28.37 398.8 36.48 398.8 45.16 371.02"/>
      <circle class="cls-10" cx="12.01" cy="367.34" r="1.8"/>
      <circle class="cls-10" cx="6.65" cy="364.65" r=".9"/>
      <circle class="cls-10" cx="7.56" cy="370.05" r=".9"/>
      <path class="cls-2" d="m19.8,397.89c.47-.15.92-.33,1.33-.55-.42-.22-.86-.4-1.33-.55-1.43-.45-2.52-1.61-2.97-3.05,0,0,0-.02,0-.02-.14-.42-.29-.82-.51-1.21-.22.39-.38.79-.51,1.21-.03.08-.05.16-.07.24-.39,1.35-1.44,2.4-2.79,2.79-.08.02-.16.05-.24.07-.42.14-.82.29-1.21.51.39.22.79.38,1.21.51.15.05.3.09.46.13,1.23.33,2.18,1.3,2.51,2.52.16.59.38,1.15.65,1.66.22-.42.4-.86.55-1.33.44-1.4,1.55-2.5,2.94-2.94Z"/>
    </g>
    <g>
      <circle class="cls-4" cx="14.69" cy="483.62" r="12.48"/>
      <g>
        <path class="cls-5" d="m13.68,458.12c.21-.07.42-.15.61-.25-.19-.1-.39-.18-.6-.25-.65-.21-1.14-.73-1.35-1.38,0,0,0,0,0-.01-.06-.19-.13-.37-.23-.55-.1.18-.17.36-.23.55-.01.04-.02.07-.03.11-.18.61-.65,1.09-1.27,1.27-.04.01-.07.02-.11.03-.19.06-.37.13-.55.23.18.1.36.17.55.23.07.02.14.04.21.06.56.15.99.59,1.14,1.14.07.27.17.52.29.75.1-.19.18-.39.25-.61.2-.63.7-1.14,1.34-1.34Z"/>
        <path class="cls-5" d="m40.32,489.82c.21-.07.42-.15.61-.25-.19-.1-.39-.18-.6-.25-.65-.21-1.14-.73-1.35-1.38,0,0,0,0,0-.01-.06-.19-.13-.37-.23-.55-.1.18-.17.36-.23.55-.01.04-.02.07-.03.11-.18.61-.65,1.09-1.27,1.27-.04.01-.07.02-.11.03-.19.06-.37.13-.55.23.18.1.36.17.55.23.07.02.14.04.21.06.56.15.99.59,1.14,1.14.07.27.17.52.29.75.1-.19.18-.39.25-.61.2-.63.7-1.14,1.34-1.34Z"/>
        <path class="cls-5" d="m39.05,448.03c.14-.04.28-.1.4-.17-.13-.07-.26-.12-.4-.17-.43-.14-.76-.49-.9-.92,0,0,0,0,0,0-.04-.13-.09-.25-.16-.36-.07.12-.11.24-.16.36,0,.02-.02.05-.02.07-.12.41-.43.72-.84.84-.02,0-.05.01-.07.02-.13.04-.25.09-.36.16.12.07.24.11.36.16.05.01.09.03.14.04.37.1.66.39.76.76.05.18.11.35.19.5.07-.13.12-.26.17-.4.13-.42.47-.75.89-.89Z"/>
        <path class="cls-10" d="m46.11,464.13s5.84,1.22,7.49-.28c0,0-3.36-5.46-12.52-3.64,0,0,.7-2.83-.1-4.02-.8-1.19,1.12-4.13,1.12-4.13,0,0-5-3.29-8.25,2.59,0,0-3.99-1.78-3.92-7.52,0,0-5.25,3.43-5.11,8.04,0,0-5.63-.28-8.01-3.25,0,0,.17,3.08,2.24,5.21,2.06,2.13,4.69,3.01,4.69,3.01,0,0-1.12.38-2.27.35-1.15-.03-2.87,1.68-4.65,2.83-1.78,1.15-2.59,1.22-2.59,1.22,0,0,1.5,1.5,3.08,1.56s4.69,0,4.69,0c0,0-1.99,1.14-2.06,2.92-.07,1.78-1.54,4.2-2.62,5.63,0,0,1.4.38,3.29-1.43,1.89-1.82,5.32.21,5.32.21,0,0,1.89.49,2.45,0,0,0-.35,7.52,4.37,9.97,0,0-.04-2.27.82-3.46.86-1.19.9-3.74.9-3.74,0,0,.91,2.73,2.62,4.83,1.71,2.1,2.73,4.06,2.73,4.06,0,0,3.22-2.52,2.31-9.93,0,0,5.11,1.75,5.46,5.32,0,0,2.52-5.11-2.52-10.14,0,0,3.78-.35,6.51,3.64,0,0,2.69-6.96-5.42-9.83Zm-9.17,4.01c-1.26,1.1-3.35.76-4.68-.77s-1.39-3.65-.14-4.74c1.26-1.1,3.35-.76,4.68.77,1.33,1.52,1.39,3.65.14,4.74Z"/>
        <path class="cls-11" d="m24.81,472.9s-6.85,7.72-3.25,11.18c3.6,3.46-4,16.47-4,16.47l3.83,1.13s5.74-14.02,4.61-16.69-3.97-2.77,2.34-11.55c-1.59.55-3.53-.53-3.53-.53Z"/>
        <path class="cls-11" d="m25.23,484.4s2-2.47,4.73,1.4c2.73,3.87,3.93,2.67,3.93,2.67,0,0-4.73,3.47-8.4-1.87l-.27-2.2Z"/>
        <path class="cls-11" d="m23.82,485.6s-1.04-3-4.93-.29c-3.89,2.71-4.61,1.17-4.61,1.17,0,0,3.27,4.87,8.54,1.1l1-1.98Z"/>
      </g>
    </g>
    <g>
      <circle class="cls-11" cx="40.16" cy="298.89" r="1.3"/>
      <circle class="cls-11" cx="42.59" cy="297.03" r=".74"/>
      <circle class="cls-11" cx="42.78" cy="300.25" r=".95"/>
      <circle class="cls-11" cx="41.05" cy="302.68" r=".95"/>
      <circle class="cls-11" cx="35.83" cy="299.84" r=".95"/>
      <circle class="cls-11" cx="45.63" cy="298" r="1.3"/>
      <circle class="cls-11" cx="48.05" cy="296.13" r=".74"/>
      <circle class="cls-11" cx="48.24" cy="299.35" r=".95"/>
      <circle class="cls-11" cx="46.51" cy="301.78" r=".95"/>
      <circle class="cls-11" cx="43.99" cy="307.94" r="1.3"/>
      <circle class="cls-11" cx="37.36" cy="302.33" r="1.3"/>
      <circle class="cls-11" cx="32.85" cy="301.73" r="1.3"/>
      <circle class="cls-11" cx="43.46" cy="310.96" r=".74"/>
      <circle class="cls-11" cx="41.15" cy="308.71" r=".95"/>
      <circle class="cls-11" cx="32.85" cy="310.09" r=".95"/>
      <circle class="cls-11" cx="32.85" cy="307.33" r=".95"/>
      <circle class="cls-11" cx="40.79" cy="305.75" r=".95"/>
      <circle class="cls-11" cx="35.12" cy="304.51" r=".95"/>
      <circle class="cls-11" cx="37.36" cy="306.38" r=".95"/>
      <circle class="cls-11" cx="40.57" cy="312.29" r="1.3"/>
      <circle class="cls-11" cx="27.05" cy="302.33" r="1.3"/>
      <circle class="cls-11" cx="30.61" cy="305.46" r="1.3"/>
      <circle class="cls-11" cx="40.04" cy="315.31" r=".74"/>
      <circle class="cls-11" cx="37.72" cy="313.06" r=".95"/>
      <circle class="cls-11" cx="37.36" cy="310.09" r=".95"/>
      <circle class="cls-11" cx="21.08" cy="304.83" r="1.3"/>
      <circle class="cls-11" cx="23.7" cy="306.42" r=".74"/>
      <circle class="cls-11" cx="20.77" cy="307.76" r=".95"/>
      <circle class="cls-11" cx="17.88" cy="307.03" r=".95"/>
      <circle class="cls-11" cx="18.61" cy="301.14" r=".95"/>
      <circle class="cls-11" cx="23.9" cy="309.6" r="1.3"/>
      <circle class="cls-11" cx="26.52" cy="311.18" r=".74"/>
      <circle class="cls-11" cx="23.59" cy="312.52" r=".95"/>
      <circle class="cls-11" cx="20.7" cy="311.79" r=".95"/>
      <circle class="cls-11" cx="14.04" cy="311.69" r="1.3"/>
      <circle class="cls-11" cx="16.86" cy="303.47" r="1.3"/>
      <circle class="cls-11" cx="15.78" cy="299.05" r="1.3"/>
      <circle class="cls-11" cx="11.04" cy="312.29" r=".74"/>
      <circle class="cls-11" cx="12.29" cy="309.32" r=".95"/>
      <circle class="cls-11" cx="7.98" cy="302.09" r=".95"/>
      <circle class="cls-11" cx="10.56" cy="301.09" r=".95"/>
      <circle class="cls-11" cx="14.92" cy="307.91" r=".95"/>
      <circle class="cls-11" cx="14.01" cy="302.17" r=".95"/>
      <circle class="cls-11" cx="13.08" cy="304.95" r=".95"/>
      <circle class="cls-11" cx="8.75" cy="310.08" r="1.3"/>
      <circle class="cls-11" cx="13.11" cy="293.87" r="1.3"/>
      <circle class="cls-11" cx="11.49" cy="298.32" r="1.3"/>
      <circle class="cls-11" cx="5.74" cy="310.68" r=".74"/>
      <circle class="cls-11" cx="7" cy="307.71" r=".95"/>
      <circle class="cls-11" cx="9.63" cy="306.3" r=".95"/>
      <circle class="cls-11" cx="29.31" cy="312.29" r=".95"/>
      <circle class="cls-11" cx="29.71" cy="298.4" r="1.3"/>
      <circle class="cls-11" cx="17.88" cy="310.68" r="1.3"/>
      <circle class="cls-11" cx="12.19" cy="318.55" r=".74"/>
      <circle class="cls-11" cx="23.18" cy="316.27" r=".95"/>
      <circle class="cls-11" cx="34.56" cy="313.22" r="1.3"/>
      <circle class="cls-11" cx="22.6" cy="300.79" r=".95"/>
      <circle class="cls-11" cx="27.18" cy="306.3" r=".95"/>
      <circle class="cls-11" cx="16.7" cy="317.07" r="1.3"/>
      <circle class="cls-11" cx="14.19" cy="315.32" r=".74"/>
      <circle class="cls-11" cx="17.2" cy="314.17" r=".95"/>
      <circle class="cls-11" cx="20.04" cy="315.09" r=".95"/>
      <circle class="cls-11" cx="26.67" cy="315.62" r="1.3"/>
      <circle class="cls-11" cx="29.71" cy="315.21" r=".74"/>
      <circle class="cls-11" cx="29.71" cy="309.14" r=".95"/>
      <circle class="cls-11" cx="31.85" cy="317.57" r="1.3"/>
      <circle class="cls-11" cx="34.89" cy="317.16" r=".74"/>
      <line class="cls-9" x1="20.37" y1="276.43" x2="21.6" y2="297.62"/>
      <line class="cls-9" x1="17.53" y1="275.01" x2="18.76" y2="296.19"/>
      <line class="cls-9" x1="26.22" y1="281.88" x2="27.13" y2="297.6"/>
      <line class="cls-9" x1="23.46" y1="283.18" x2="24.37" y2="298.89"/>
      <line class="cls-9" x1="28.89" y1="279.9" x2="29.8" y2="295.61"/>
      <line class="cls-9" x1="14.88" y1="275.01" x2="15.79" y2="290.72"/>
      <line class="cls-9" x1="44.43" y1="273.21" x2="45.66" y2="294.4"/>
      <line class="cls-9" x1="41.94" y1="272.86" x2="43.17" y2="294.05"/>
      <line class="cls-9" x1="39.78" y1="279.68" x2="40.69" y2="295.39"/>
      <line class="cls-9" x1="34.02" y1="273.92" x2="35.49" y2="296.13"/>
      <line class="cls-9" x1="31.55" y1="276.43" x2="33.03" y2="298.64"/>
      <line class="cls-9" x1="37.02" y1="278.4" x2="38.1" y2="296.67"/>
    </g>
    <text class="cls-3" transform="translate(68.64 298.65)"><tspan class="cls-16" x="0" y="0">R</tspan><tspan x="8.89" y="0">emoves mo</tspan><tspan class="cls-15" x="70.31" y="0">r</tspan><tspan x="75.04" y="0">e dirt</tspan></text>
    <text class="cls-3" transform="translate(67.58 36.1)"><tspan class="cls-19" x="0" y="0">N</tspan><tspan x="10.51" y="0">o har</tspan><tspan class="cls-15" x="38.19" y="0">m</tspan><tspan x="49.06" y="0">ful chemicals</tspan></text>
    <g>
      <circle class="cls-4" cx="19.08" cy="11.83" r="11.83"/>
      <circle class="cls-4" cx="38.41" cy="51.56" r="6.69"/>
      <polygon class="cls-2" points="14.54 51.17 14.54 18.41 20.4 13.42 19.86 10.4 31.45 9.96 33.34 18.82 28.14 52.99 14.54 51.17"/>
      <polygon class="cls-2" points="38.1 34.99 37.87 50.1 35.95 52.03 32.57 52.99 23.94 52.99 38.1 34.99"/>
      <g>
        <path class="cls-5" d="m43.67,16.55c.1-.03.2-.07.29-.12-.09-.05-.19-.09-.29-.12-.31-.1-.55-.35-.65-.66,0,0,0,0,0,0-.03-.09-.06-.18-.11-.26-.05.08-.08.17-.11.26,0,.02-.01.04-.02.05-.08.29-.31.52-.61.61-.02,0-.04.01-.05.02-.09.03-.18.06-.26.11.08.05.17.08.26.11.03.01.07.02.1.03.27.07.47.28.55.55.04.13.08.25.14.36.05-.09.09-.19.12-.29.1-.3.34-.54.64-.64Z"/>
        <path class="cls-5" d="m10.15,47.14c.1-.03.2-.07.29-.12-.09-.05-.19-.09-.29-.12-.31-.1-.55-.35-.65-.66,0,0,0,0,0,0-.03-.09-.06-.18-.11-.26-.05.08-.08.17-.11.26,0,.02-.01.04-.02.05-.08.29-.31.52-.61.61-.02,0-.04.01-.05.02-.09.03-.18.06-.26.11.08.05.17.08.26.11.03.01.07.02.1.03.27.07.47.28.55.55.04.13.08.25.14.36.05-.09.09-.19.12-.29.1-.3.34-.54.64-.64Z"/>
        <path class="cls-11" d="m20.82,11.83c1.25.18,3.19.4,5.07.4.11,0,.23,0,.34,0,.11,0,.23,0,.34,0,1.83,0,3.71-.21,5.07-.4v1.98s.6.4.6.4c1.96,1.31,4.9,3.79,5.3,5.22.48,1.73.42,11.95.27,18h0s0,.03,0,.03l-.03,10.92v.02s0,.02,0,.02c.03,1-.29,1.95-.9,2.67-.37.44-.78.73-1.23.88-1.71.56-6.53,1.02-9.38,1.02h-.04c-2.89,0-7.73-.46-9.43-1.02-.42-.14-.81-.38-1.17-.73-.7-.68-1.1-1.66-1.09-2.68l.1-11.03v-.02s0-.02,0-.02c-.15-6.07-.21-16.34.27-18.06.4-1.43,3.34-3.91,5.3-5.22l.6-.4v-1.98m-.49-1.43c-.47,0-.86.38-.86.87v1.82s-5.14,3.42-5.85,5.98c-.71,2.56-.32,18.46-.32,18.46l-.1,11.03c-.01,1.36.5,2.69,1.5,3.66.45.43,1,.82,1.68,1.04,1.87.62,6.88,1.08,9.85,1.09.01,0,.03,0,.04,0,2.94,0,7.89-.45,9.81-1.09.78-.26,1.38-.75,1.84-1.3.85-1.01,1.25-2.29,1.21-3.58l.03-10.92s.4-15.83-.32-18.39c-.71-2.56-5.85-5.98-5.85-5.98v-1.64c0-.57-.47-1.02-1.02-1.02-.05,0-.1,0-.16.01-1.24.19-3.28.44-5.25.44-.11,0-.22,0-.33,0h-.02c-.11,0-.22,0-.33,0-2.06,0-4.21-.28-5.42-.47-.05,0-.09-.01-.13-.01h0Z"/>
        <path class="cls-11" d="m26.23,6.82c-4.22,0-7.64.55-7.64,1.23v2.31c0,.68,3.42,1.32,7.64,1.32s7.64-.64,7.64-1.32v-2.31c0-.68-3.42-1.23-7.64-1.23Z"/>
        <path class="cls-11" d="m29.5,29.28c-1.24,0-4.63-.34-7.56-3.71-3.28-3.77-8.03-2.74-8.08-2.73-.22.05-.44-.09-.49-.3-.05-.22.09-.43.3-.49.21-.05,5.27-1.16,8.88,2.99,3.31,3.81,7.3,3.42,7.34,3.42.22-.02.42.14.45.36.02.22-.14.42-.36.45-.03,0-.2.02-.48.02Z"/>
        <path class="cls-11" d="m34.27,29c-.19,0-.36-.14-.4-.33-.04-.22.11-.43.33-.47.03,0,2.66-.48,4.16-1.53.18-.13.44-.08.56.1.13.18.08.44-.1.56-1.65,1.15-4.37,1.64-4.49,1.66-.02,0-.05,0-.07,0Z"/>
        <g class="cls-12">
          <path class="cls-11" d="m23.83,39.77c1.24-.73,2.55-1.52,3.96-1.71.99-.17,1.98-.06,2.97-.06,1.76-.1,3.29-1.2,4.26-2.65-.02-.01-.04-.01-.06,0-.43.35-1.78,1.33-3.09.98-1.58-.42-4.25-.53-6.96,1.61,0,0,0,0,0,0,.18-.27.26-.69.28-1.16.09-1.59-.54-3.14-1.67-4.28-.67-.67-1.52-1.42-2.45-1.99-1.74-1.05-2.72-1.43-3.06-1.54-.03,0-.05,0-.06.02,3.09,2.78,5.24,6.63,5.87,10.75Z"/>
          <path class="cls-11" d="m31.23,38.36c-.54.13-1.17.13-1.7.15-1.1.05-2.15.27-3.08.77-.66.35-1.3.81-1.95,1.26.44.07.95.24,1.39.6.73.6,3.29.93,5.19-.68,1.86-1.58,3.05-2.34,3.97-5.05,0-.02,0-.04-.01-.05-.8,1.43-2.16,2.64-3.8,2.99Z"/>
          <path class="cls-11" d="m17.95,29.03s0,.03,0,.04c.34.6,1.81,3.39,1.35,6.07-.45,2.67,2.04,5.09,3.55,5.38-.13-4.26-1.99-8.4-4.9-11.5Z"/>
        </g>
        <path class="cls-10" d="m38.2,36.85c-.09,0-.16-.07-.16-.16v-13.19c0-.09.07-.16.16-.16s.16.07.16.16v13.19c0,.09-.07.16-.16.16Z"/>
        <path class="cls-10" d="m38.2,42.02c-.09,0-.16-.07-.16-.16v-3.28c0-.09.07-.16.16-.16s.16.07.16.16v3.28c0,.09-.07.16-.16.16Z"/>
        <path class="cls-10" d="m41.21,33.45c.09,0,.16.07.16.16v2.76c0,.09-.07.16-.16.16s-.16-.07-.16-.16v-2.76c0-.09.07-.16.16-.16Z"/>
        <path class="cls-10" d="m41.21,15.15c.09,0,.16.07.16.16v16.38c0,.09-.07.16-.16.16s-.16-.07-.16-.16V15.3c0-.09.07-.16.16-.16Z"/>
        <path class="cls-10" d="m42.91,23.34c.09,0,.16.07.16.16v13.19c0,.09-.07.16-.16.16s-.16-.07-.16-.16v-13.19c0-.09.07-.16.16-.16Z"/>
        <path class="cls-10" d="m42.91,18.16c.09,0,.16.07.16.16v3.28c0,.09-.07.16-.16.16s-.16-.07-.16-.16v-3.28c0-.09.07-.16.16-.16Z"/>
        <path class="cls-10" d="m11.25,29.58c-.09,0-.16-.07-.16-.16v-2.76c0-.09.07-.16.16-.16s.16.07.16.16v2.76c0,.09-.07.16-.16.16Z"/>
        <path class="cls-10" d="m11.25,47.88c-.09,0-.16-.07-.16-.16v-16.38c0-.09.07-.16.16-.16s.16.07.16.16v16.38c0,.09-.07.16-.16.16Z"/>
        <path class="cls-10" d="m9.55,39.69c-.09,0-.16-.07-.16-.16v-13.19c0-.09.07-.16.16-.16s.16.07.16.16v13.19c0,.09-.07.16-.16.16Z"/>
        <path class="cls-10" d="m9.55,44.87c-.09,0-.16-.07-.16-.16v-3.28c0-.09.07-.16.16-.16s.16.07.16.16v3.28c0,.09-.07.16-.16.16Z"/>
        <path class="cls-8" d="m21.02,14.38s2.19.66,5.48.64,4.95-.64,4.95-.64"/>
      </g>
    </g>
    <g>
      <path class="cls-5" d="m32.03,94.01c-1.15-.61-.75,1.7.4.9,4.07-4.24,8.71,1.85,6.37,5.35-.33.63-1.09.94-1.93.89-1.89-.43-4.16,2.29-1.71,3.05,1.23.45,1.75-1.45.67-1.42-.19,0-.37.1-.44.24-.13.26.64-.19.7.34-1.23,2.12-2.7-1.86-.2-1.6,4.4,1,.69,3.25.98,4.59.28,1.26,2.42-.28.97-.41.68,1.36-1.73.2.12-.86.09-.05.2-.08.31-.07,1.89.11,2.07,2.23,1.8,3.46-.19,1.64-2.27,3.99-4.04,2.09-1.45-1.08-3.3,1.07-1.37,1.62,1.31.26.17-1.56.26-.71.03.14.14.32-.09.4-1.27-.05-.29-1.9.79-1.08,2.54,3.03-6.14,10.66-10.21,7.88-1.28-.88.9-2.36.36-.69,1.31-.81-1.3-1.8-.99.13.77,2.86-4.56,4.36-6.73,2.4-2.82-1.97-3.55-7.11,1.14-7.28.1,0,.21-.03.29-.08.77-.51-.35-1.91-.64-.76.16-.04.25-.15.38-.23.55,1.63-2.01,1.09-1.93-.47-.7-4.54,5.34-6.15,7.61-9.23.02-.03.04-.07.06-.1.82-2.03-2.66-3.7-2.64-1.1.37.87,1.91-.06.67-.39.58,1.14-1.05.07-.04-.44.14-.07.31-.07.45-.02,3.82,1.25-2.2,5.52-4.23,2.86-5.57-6.88,4.32-2.98,2.31-7.42-.64-1.32-2.23,1.24-.71.78-.65-.05-.41-1.03.17-.68,1.65,1.66-2.04,2.52-2.63.68,0-.03-.01-.06-.02-.08-.33-2.73,1.77-4.47,4.13-1.89.05.05.11.1.18.13,1.42.54,1.45-1.61.28-.73,1.14-.28.41.94-.32.39-1.9-1.41,1.2-2.71,2.67-1.84.11.07.26.09.4.06,1.02-.22,1.92-1.45,3.23-1.32,2.02-.24,4.38,1.15,3.6,2.96-.51.81-1.64-.21-.45-.34Z"/>
      <path class="cls-11" d="m31.58,127.77c-.09,0-.19,0-.28,0-2.21-.11-3.08-1.14-3.17-1.25-.22-.28-.17-.67.1-.89.27-.22.67-.17.89.09.04.04.64.7,2.25.78,1.55.08,2.12-.7,2.15-.73.2-.28.59-.36.88-.17.29.19.37.58.18.87-.04.06-.87,1.31-2.99,1.31Z"/>
      <path class="cls-11" d="m31.58,123.95c-.09,0-.19,0-.28,0-2.21-.11-3.08-1.14-3.17-1.25-.22-.28-.17-.67.1-.89.27-.22.67-.17.89.09.04.04.64.7,2.25.78,1.55.08,2.12-.7,2.15-.73.2-.28.59-.36.88-.17.29.19.37.58.18.87-.04.06-.87,1.31-2.99,1.31Z"/>
      <path class="cls-11" d="m22.32,126.71c-.08,0-.15,0-.23,0-1.85-.09-2.59-.96-2.67-1.06-.22-.27-.17-.67.1-.89.27-.21.66-.17.88.09.03.04.5.53,1.75.59,1.19.06,1.63-.52,1.65-.54.2-.28.6-.35.88-.16.28.19.37.57.18.86-.28.42-1.11,1.11-2.54,1.11Z"/>
      <path class="cls-11" d="m22.32,130.14c-.08,0-.15,0-.23,0-1.85-.09-2.59-.96-2.67-1.06-.22-.27-.17-.67.1-.89.27-.21.66-.17.88.09.03.04.5.53,1.75.59,1.19.06,1.63-.52,1.65-.54.2-.28.6-.35.88-.16.28.19.37.57.18.86-.28.42-1.11,1.11-2.54,1.11Z"/>
      <path class="cls-6" d="m48.82,120.12c-.72-12.31-11.32-21.74-23.63-21.02-12.31.72-21.74,11.32-21.02,23.63s11.32,21.74,23.63,21.02c12.31-.72,21.74-11.32,21.02-23.63Zm-23.4-17.08c10.14-.59,18.87,7.17,19.46,17.31.26,4.53-1.14,8.78-3.68,12.14l-27.41-24.38c3.05-2.91,7.1-4.81,11.63-5.07Zm-17.31,19.46c-.25-4.19.94-8.14,3.13-11.37l27.26,24.25c-2.96,2.55-6.74,4.19-10.93,4.43-10.14.59-18.87-7.17-19.46-17.31Z"/>
      <path class="cls-11" d="m22.07,133.97c-.08,0-.16,0-.24,0-1.8-.09-2.69-.91-2.78-1-.25-.24-.25-.64,0-.89.24-.25.64-.25.89-.01.04.03.65.58,1.96.64,1.28.06,1.95-.6,1.97-.62.24-.25.64-.25.9-.02s.26.63.03.88c-.04.04-.99,1.02-2.72,1.02Z"/>
      <path class="cls-11" d="m31.58,131.77c-.09,0-.19,0-.28,0-2.21-.11-3.08-1.13-3.17-1.25-.22-.28-.17-.67.1-.89.27-.22.67-.17.89.09.04.04.64.7,2.25.78,1.55.08,2.12-.7,2.15-.73.2-.28.59-.36.88-.17.29.19.37.58.18.87-.04.06-.87,1.31-2.99,1.31Z"/>
      <path class="cls-11" d="m24.79,124.43s-1.12-1.18-2.66-1.2c-.96-.03-1.85.38-2.66,1.19l-.19.18-1.45,20.2,1.64.03,1.08-19.69c.5-.43,1.01-.65,1.54-.65.71,0,1.31.42,1.59.65l.64,19.68,1.58.04-.94-20.24-.17-.18Z"/>
      <path class="cls-11" d="m34.5,121.26c-.05-.06-1.34-1.41-3.16-1.44-1.13-.02-2.19.46-3.16,1.43l-.18.18-.63,23.43h1.42l.47-22.88c.65-.59,1.32-.89,2.02-.89.01,0,.02,0,.03,0,.97.01,1.77.6,2.1.89l.35,22.88h1.39l-.48-23.42-.17-.18Z"/>
      <line class="cls-7" x1="29.73" y1="127.44" x2="32.93" y2="130.63"/>
      <line class="cls-7" x1="32.93" y1="127.44" x2="29.73" y2="130.63"/>
      <line class="cls-7" x1="20.69" y1="129.79" x2="23.56" y2="132.66"/>
      <line class="cls-7" x1="23.56" y1="129.79" x2="20.69" y2="132.66"/>
    </g>
  </g>
</svg>